<svg id="Layer_1" data-name="Layer 1" xmlns="http://www.w3.org/2000/svg" viewBox="0 0 37.42 38.01"><defs><style>.cls-1{fill:#fff;}</style></defs><title>logo</title><path class="cls-1" d="M11.23,12.07a.46.46,0,1,0-.46-.46A.46.46,0,0,0,11.23,12.07Zm15-.91a.46.46,0,1,0,.46.46A.46.46,0,0,0,26.19,11.16Zm9.74-9.56C34.11-.28,31.32-.54,29.71,1a3.55,3.55,0,0,0-.32.36,52.27,52.27,0,0,0-5.6,0c-1.47,0-3.13.08-5,.08h-.16c-1.86,0-3.53,0-5-.08a52.26,52.26,0,0,0-5.6,0A3.57,3.57,0,0,0,7.71,1C6.1-.54,3.31-.28,1.49,1.59s-2,4.67-.39,6.23a3.53,3.53,0,0,0,1,.66,73.84,73.84,0,0,0-.29,7.72c0,.13,0,.26,0,.39,0,.66,0,1.35,0,2.08A19.85,19.85,0,0,0,3.26,26.2a20.64,20.64,0,0,0,3.87,6.14,18.79,18.79,0,0,0,5.41,4.14A13.78,13.78,0,0,0,18.63,38h.16a13.78,13.78,0,0,0,6.09-1.53,18.8,18.8,0,0,0,5.41-4.14,20.63,20.63,0,0,0,3.87-6.14,19.84,19.84,0,0,0,1.49-7.52c0-.73,0-1.42,0-2.08,0-.13,0-.26,0-.39a74,74,0,0,0-.29-7.72,3.53,3.53,0,0,0,1-.66C37.93,6.27,37.75,3.47,35.93,1.59Zm-22.31.28c1.47,0,3.14.08,5,.08h.16c1.87,0,3.54,0,5-.08,2.13-.05,3.85-.1,5.26,0a3.6,3.6,0,0,0-.18.39,46.48,46.48,0,0,0-6.05-.09c-1.2,0-2.56.06-4,.06h-.17c-1.48,0-2.84,0-4-.06a46.5,46.5,0,0,0-6.05.09,3.51,3.51,0,0,0-.18-.39C9.77,1.77,11.49,1.82,13.62,1.87Zm-5.47.77a.26.26,0,0,0,.42-.06,46,46,0,0,1,6-.09c1.2,0,2.56.06,4,.06h.16c1.49,0,2.85,0,4-.06a46,46,0,0,1,6,.09.26.26,0,0,0,.42.06,4.68,4.68,0,0,1,2.64,1.17c.91.89,1.38,2.38,1.62,4.58a.26.26,0,0,0,0,.42c.13,1.46.17,3.21.17,5.27,0,3.69-2.85,7.34-7.45,9.58,0-.25,0-.5,0-.76A25.51,25.51,0,0,0,24.89,14a1.22,1.22,0,0,0,.66.19c.86,0,1.81-.92,3.18-2.52a.16.16,0,0,0-.12-.26H27a.87.87,0,0,0-.44-.61A5,5,0,0,1,28,11.1h0a.16.16,0,0,0,.21-.23,3.29,3.29,0,0,0-3.51-.73h0c.33-.2.68-.43,1.06-.69,1.46-1,2.12-1.55,2.17-2.14a.94.94,0,0,0-.35-.77,3.73,3.73,0,0,0-2.35-.73,3.11,3.11,0,0,0-2.3.87,5,5,0,0,0-1.23,2.07,2.29,2.29,0,0,0-.05,1.09,5.12,5.12,0,0,0-1.13-.5V6.52a.16.16,0,1,0-.32,0V9.26a5.78,5.78,0,0,0-1.33-.15h-.2a5.72,5.72,0,0,0-1.46.18V6.52a.16.16,0,1,0-.32,0V9.39a5.11,5.11,0,0,0-1,.46,2.29,2.29,0,0,0-.05-1.09,5,5,0,0,0-1.23-2.07,3.11,3.11,0,0,0-2.3-.87,3.73,3.73,0,0,0-2.35.73.94.94,0,0,0-.35.77c0,.58.71,1.13,2.17,2.14.38.26.73.49,1.06.69h0a3.29,3.29,0,0,0-3.51.73.16.16,0,0,0,.21.23h0a5,5,0,0,1,1.35-.25.88.88,0,0,0-.44.61H8.81a.16.16,0,0,0-.12.26c1.37,1.6,2.32,2.52,3.18,2.52h0a1.22,1.22,0,0,0,.66-.19,25.52,25.52,0,0,0-1.42,8.86c0,.26,0,.52,0,.76-4.6-2.24-7.45-5.89-7.45-9.58,0-2.06,0-3.81.17-5.27a.26.26,0,0,0,0-.42C4.12,6.2,4.6,4.7,5.5,3.82A4.67,4.67,0,0,1,8.15,2.65Zm23.63.63a1.86,1.86,0,1,1,1.73,2.53h-.13a5,5,0,0,0-1.24-2.21A3.76,3.76,0,0,0,31.77,3.28ZM13,27.4c1,1.14,2.71,1.62,5.57,1.62h.1v0h.1c2.86,0,4.52-.49,5.57-1.62s1.43-2.81,1.43-5.73a28.63,28.63,0,0,0-.32-4.28A29.62,29.62,0,0,1,26,22.9c0,3.1-.43,4.89-1.44,6a3.91,3.91,0,0,1-1,.8,16,16,0,0,1-4.74.75h-.16a16,16,0,0,1-4.74-.75,3.92,3.92,0,0,1-1-.8c-1-1.11-1.44-2.91-1.44-6a29.62,29.62,0,0,1,.49-5.52,28.61,28.61,0,0,0-.32,4.28C11.6,24.59,12,26.3,13,27.4Zm1.52-16.56a7.41,7.41,0,0,0-.87,1,1.84,1.84,0,0,0-.81-1.66A3.84,3.84,0,0,0,14.56,10.84ZM12,9c-1-.69-1.91-1.35-1.94-1.75,0-.07,0-.17.19-.34a3.25,3.25,0,0,1,2-.59A2.61,2.61,0,0,1,14.17,7a4.46,4.46,0,0,1,1.1,1.85,1.24,1.24,0,0,1-.18,1.25.64.64,0,0,1-.47.17A6.16,6.16,0,0,1,12,9Zm1.36,2.89h-.81a1.84,1.84,0,0,0-.84-1.14,2.38,2.38,0,0,0-1.64-.11,2.79,2.79,0,0,1,2.53-.24A1.53,1.53,0,0,1,13.37,11.91Zm-1.27-.36a2.54,2.54,0,0,1,.22.54h0v0h0l0,0h1v.1a4.6,4.6,0,0,1-1.48.27,2.22,2.22,0,0,1-.61-.08.87.87,0,0,0,.85-.87S12.1,11.57,12.1,11.55Zm-.87-.5a.57.57,0,1,1-.57.57A.57.57,0,0,1,11.23,11Zm-.46,1.57a2,2,0,0,0,1.09.26,4.84,4.84,0,0,0,1.32-.2q-.18.32-.35.68a1.27,1.27,0,0,1-1,.58c-.69,0-1.56-.82-2.72-2.15h1.11A1.08,1.08,0,0,0,10.77,12.61Zm4.69-1.87A3,3,0,0,0,15,12.37a9.13,9.13,0,0,0,.3,2.23,5.26,5.26,0,0,1,.11,2.58,18.38,18.38,0,0,1-1.62,4,10,10,0,0,0-1.33,3.65c0,.07,0,.14,0,.2a14.49,14.49,0,0,1-.32-3.41C12.13,19.45,12.42,13.28,15.46,10.75Zm6.49,0c3,2.53,3.33,8.7,3.33,10.92A14.45,14.45,0,0,1,25,25.08c0-.07,0-.13,0-.2a10,10,0,0,0-1.33-3.65,18.4,18.4,0,0,1-1.62-4,5.27,5.27,0,0,1,.11-2.58,9.1,9.1,0,0,0,.3-2.23A3,3,0,0,0,22,10.75Zm4.22,1.74a2.24,2.24,0,0,1-.62.08,4.6,4.6,0,0,1-1.48-.27v-.1h1l0,0h0v0h0a2.49,2.49,0,0,1,.22-.54s0,0,0,.07A.87.87,0,0,0,26.18,12.49Zm-.62.39c1,0,1.52-.39,1.59-1.11h1.11c-1.16,1.34-2,2.15-2.72,2.15a1.27,1.27,0,0,1-1-.58q-.17-.35-.35-.68A4.84,4.84,0,0,0,25.56,12.88Zm.63-.7a.57.57,0,1,1,.57-.57A.57.57,0,0,1,26.19,12.18Zm-.48-1.42a1.84,1.84,0,0,0-.84,1.14h-.81a1.53,1.53,0,0,1,.76-1.5,2.79,2.79,0,0,1,2.53.24A2.38,2.38,0,0,0,25.71,10.76Zm-2,1.11a7.34,7.34,0,0,0-.87-1,3.84,3.84,0,0,0,1.68-.63A1.84,1.84,0,0,0,23.74,11.87Zm-.94-1.56a.64.64,0,0,1-.47-.17,1.25,1.25,0,0,1-.18-1.25A4.46,4.46,0,0,1,23.25,7a2.61,2.61,0,0,1,1.92-.71,3.25,3.25,0,0,1,2,.59c.18.17.19.28.19.34,0,.4-.94,1.06-1.94,1.75A6.16,6.16,0,0,1,22.8,10.32Zm.38,11.14a10,10,0,0,1,1.28,3.41c0,1.3-.53,1.93-1.62,1.93a6.52,6.52,0,0,1-3.76-1.59.28.28,0,0,0,0-.08c.54-1.39,3.15-1.64,3.18-1.64a.26.26,0,0,0,.24-.24,3,3,0,0,0-.68-2.37q0-1.66-.13-3A22.45,22.45,0,0,0,23.18,21.46Zm-5.35-.21c-.32-.11-.72.2-.88.68a1.06,1.06,0,0,0,0,.87h-.09a.94.94,0,0,1-.71-.56,1.21,1.21,0,0,1,0-1.19,3.76,3.76,0,0,1,2.42-.66h.16a3.76,3.76,0,0,1,2.42.66,1.21,1.21,0,0,1,0,1.19.94.94,0,0,1-.71.56h-.09a1.06,1.06,0,0,0,0-.87c-.16-.48-.55-.79-.88-.68s-.45.59-.29,1.07a1.31,1.31,0,0,0,.15.3l0,.05a1.22,1.22,0,0,0,1,.65h.05a3.81,3.81,0,0,0-1.61,1V22.6a.16.16,0,1,0-.33,0v1.88a3.6,3.6,0,0,0-1.73-1.15h.06a1.22,1.22,0,0,0,1-.65l0-.05a1.35,1.35,0,0,0,.15-.3C18.28,21.84,18.15,21.36,17.83,21.25Zm-1.45,1.93a7.71,7.71,0,0,0-.91-.18,3.15,3.15,0,0,1,.11-.94,1.93,1.93,0,0,0,.16.44A1.67,1.67,0,0,0,16.38,23.18ZM16,20.59c0-4,.57-6.52,1.57-7.54a1.51,1.51,0,0,1,1.12-.49h.14a1.51,1.51,0,0,1,1.12.49c1,1,1.53,3.55,1.57,7.54a4.37,4.37,0,0,0-2.67-.71h-.16A4.37,4.37,0,0,0,16,20.59Zm5.73,1.9a2,2,0,0,0,.17-.44A3.17,3.17,0,0,1,22,23a7.74,7.74,0,0,0-.91.18A1.67,1.67,0,0,0,21.68,22.49Zm-3,3.15h.09a7.21,7.21,0,0,0,4.07,1.68A2.33,2.33,0,0,0,24,27h0c-.93,1-2.53,1.45-5.19,1.45h-.2c-2.66,0-4.26-.45-5.19-1.45h0a2.33,2.33,0,0,0,1.17.29A7.22,7.22,0,0,0,18.67,25.64Zm3-11.16a7.63,7.63,0,0,0-.23,1.41,6,6,0,0,0-1.27-3.07,1.83,1.83,0,0,0-1.34-.58h-.14a1.83,1.83,0,0,0-1.34.58A6,6,0,0,0,16,15.9a7.63,7.63,0,0,0-.23-1.41,8.58,8.58,0,0,1-.28-2.12,3,3,0,0,1,3.1-2.73h.2a3,3,0,0,1,3.1,2.73A8.55,8.55,0,0,1,21.62,14.49Zm-5.86,3.38q-.12,1.35-.13,3A3,3,0,0,0,15,23.25a.26.26,0,0,0,.24.24s2.64.25,3.18,1.64a.26.26,0,0,0,0,.08,6.52,6.52,0,0,1-3.76,1.59c-1.09,0-1.62-.63-1.62-1.93a10,10,0,0,1,1.28-3.41A22.42,22.42,0,0,0,15.76,17.87ZM4,5.8H3.92A1.86,1.86,0,1,1,5.65,3.28a3.83,3.83,0,0,0-.36.31A5,5,0,0,0,4,5.8ZM1.46,7.45C.07,6.09.25,3.63,1.87,2S5.95,0,7.34,1.4a3,3,0,0,1,.66,1,5.62,5.62,0,0,0-2.09.74,2.17,2.17,0,1,0-2,3H4c-.09.34-.17.7-.23,1.09s-.11.71-.15,1.11a3.37,3.37,0,0,1-1.14-.24h0A3,3,0,0,1,1.46,7.45ZM2.58,8.69a4,4,0,0,0,.95.16c-.12,1.33-.17,3-.17,5.24a9.11,9.11,0,0,0,2.27,5.79A16.13,16.13,0,0,0,11.13,24c.1,2.52.57,4.07,1.5,5.1l.21.22C7.33,27.25,2.51,22.42,2.3,16.59,2.33,13.18,2.41,10.67,2.58,8.69ZM29.9,32c-3.19,3.5-7.24,5.5-11.11,5.5h-.16c-3.87,0-7.92-2-11.11-5.5A19.79,19.79,0,0,1,2.33,19.76,13.05,13.05,0,0,0,3.27,22a15.93,15.93,0,0,0,3.89,4.69,19.13,19.13,0,0,0,5.4,3.15A17.06,17.06,0,0,0,18.63,31h.16a17.06,17.06,0,0,0,6.07-1.16,19.13,19.13,0,0,0,5.4-3.15A15.92,15.92,0,0,0,34.15,22a13.09,13.09,0,0,0,.94-2.22A19.79,19.79,0,0,1,29.9,32Zm-5.33-2.64.21-.22c.94-1,1.4-2.59,1.5-5.1a16.14,16.14,0,0,0,5.51-4.15,9.12,9.12,0,0,0,2.27-5.79c0-2.24-.05-3.91-.17-5.24a4,4,0,0,0,.95-.16c.16,2,.25,4.49.27,7.91C34.91,22.42,30.09,27.25,24.58,29.34ZM35,8.08h0a3.35,3.35,0,0,1-1.14.24c0-.4-.09-.77-.15-1.11s-.14-.75-.23-1.09h0a2.17,2.17,0,1,0-2-3,5.62,5.62,0,0,0-2.09-.74,3,3,0,0,1,.66-1C31.48,0,33.93.29,35.55,2s1.8,4.13.4,5.49A3,3,0,0,1,35,8.08Z"/></svg>