<svg width="776" height="218" viewBox="0 0 776 218" fill="none" xmlns="http://www.w3.org/2000/svg">
<g clip-path="url(#clip0)">
<path d="M108.8 0C48.8 0 0 48.8 0 108.8C0 168.8 48.8 217.6 108.8 217.6C168.9 217.6 217.6 168.8 217.6 108.8C217.6 48.8 168.9 0 108.8 0ZM108.8 211.9C52 211.9 5.8 165.7 5.8 108.9C5.8 52.1 52 5.9 108.8 5.9C165.6 5.9 211.8 52.1 211.8 108.9C211.8 165.7 165.6 211.9 108.8 211.9Z" fill="white"/>
<path d="M156 193.9C147.3 191.9 142.2 186 136.6 180.4C136.6 181.4 136.8 182.1 137.1 182.8C140.4 189.9 146.2 193.7 152.6 196.8C155.1 195.5 157.5 194.2 159.9 192.8C157.9 190.2 155.8 187.6 153.8 184.9C154.5 187.8 155.2 190.7 156 193.9Z" fill="white"/>
<path d="M206.5 92.2C198.6 45.8 158.2 10.5 109.5 10.5C55.2 10.5 11.1 54.5 11.1 108.9C11.1 163.3 55.1 207.3 109.5 207.3C122.3 207.3 134.5 204.8 145.7 200.4C134.8 189.6 126.7 176.2 122.9 158.8C126.6 159.5 129.6 159.6 132.4 160.5C136.1 161.8 139.6 163.4 143.1 165.2C144.7 166.1 146 167.6 147.2 169C153.1 176 158.8 183.3 165 190.2C166.8 189 168.5 187.7 170.2 186.4C162.7 179.9 155.9 172.8 150.6 164C146.2 156.6 141.7 149.3 137.1 142C134.2 137.5 131 133.3 126.7 131.7C125.3 133.4 124.6 134.7 123.5 135.4C108.6 145.1 93 147.8 76.4 140.1C75.7 139.8 74.9 139.6 74.1 139.4C73.8 139.3 73.5 139.5 72.6 139.7C83.4 147.2 94.8 149.7 107.1 146.6C110.8 145.7 113 146 115.6 148.7C117.7 151.1 120.5 153 123.2 155.3C100.9 163.2 79.8 160.1 58.3 151.2C65 149.7 71.2 148.3 77.3 147C77.2 146.7 77.2 146.3 77.2 146C73.4 146.4 69.6 147.1 65.8 147.3C58.9 147.6 51.9 148 44.8 147.8C38.1 147.6 36.5 146.1 37.3 139.4C38.4 131.1 40.2 122.7 43 114.8C49.1 97.6 59.1 82.7 71.7 69.4C76 64.8 79.6 59.5 83.6 54.7C84.5 53.6 85.6 52.6 86.8 51.8C92.7 48.1 98.8 44.7 104.6 40.9C109 37.9 113.3 37 118.4 38.8C121.4 39.9 124.7 40.5 127.7 41.6C128.9 42.1 130.3 43 130.8 44.1C133.1 49.1 135.3 54.2 137.3 59.3C138.4 62 133.4 67.2 130 67C125.3 66.8 120.7 64.9 115.9 66.6C115 66.9 113.8 66.1 112.6 65.7C120.5 58.8 120.9 57.5 116.7 51C118.4 55.3 117.4 59.4 114.2 62.3C112.3 64.1 109.1 64.6 106.5 65.7C106 65.1 105.6 64.6 105.2 64C106.5 61.5 107.9 58.9 109.4 56.2C109.1 56 108.4 55.5 107.7 55.1C105 65.9 97.2 69.9 87.2 66.1C89.3 67.5 91.3 68.9 93.5 70.5C91.4 73.6 89.2 76.5 87.3 79.7C85.5 82.7 84 85.9 82 89.5C81.3 86.1 80.7 83.4 80.1 80.6C80 80.6 79.8 80.7 79.7 80.7C79.7 88 79.7 95.2 79.7 102.9C81.2 98.7 82.6 94.7 84 90.8C84.3 90.9 84.6 90.9 84.9 91.1C85.4 95.4 86.1 99.6 86.2 103.9C86.3 105.3 84.8 106.9 83.7 108.2C80 112.8 76.2 117.3 72.5 121.8C73 122.3 73.5 122.7 74 123.1C75.3 121.7 76.7 120.4 78.1 119C79.4 117.6 80.8 116.1 82.1 114.7C89 107.8 96.4 102 106.9 101.8C114.9 101.6 121.8 104.4 128.3 109.3C126.6 112.6 125 115.8 123.3 119C123.6 119.3 124 119.5 124.3 119.7C125.3 118.6 126.3 117.6 127.2 116.4C129.7 113.2 131.9 109.8 134.5 106.7C151.2 86.2 175.4 92.8 188.6 107.8C189.1 108.4 189.5 109.1 190.7 109.4C190.4 107.5 190 105.5 189.7 103.2C195.1 99.7 200.4 96.2 206.5 92.2ZM115.2 144.1C119.7 141.3 123.9 138.8 128.5 135.9C134.8 141.3 137.1 149.4 141 157.5C130.4 155.6 122.9 150.2 115.2 144.1ZM108.8 167C110.1 167 111.1 168.1 111.1 169.3C111.1 170.6 110 171.6 108.8 171.6C107.5 171.6 106.5 170.5 106.5 169.3C106.6 168.1 107.6 167 108.8 167ZM91.4 167C91.4 167 92.5 181.7 103.6 181.5C92.7 181.5 91.4 196 91.4 196C91.4 196 90.1 181.5 79.2 181.5C90.1 181.6 91.4 167 91.4 167ZM66.7 169.4C68.4 169.4 69.8 170.8 69.8 172.5C69.8 174.2 68.4 175.6 66.7 175.6C65 175.6 63.6 174.2 63.6 172.5C63.6 170.8 65 169.4 66.7 169.4ZM51.6 174C52.5 174 53.1 174.7 53.1 175.5C53.1 176.3 52.4 177 51.6 177C50.7 177 50.1 176.3 50.1 175.5C50.1 174.6 50.8 174 51.6 174ZM24.7 121.5C24.7 121.6 24.2 116.1 19.9 116.1C24.2 116.1 24.7 110.7 24.7 110.7C24.7 110.7 25.2 116.2 29.5 116.1C25.2 116.1 24.7 121.5 24.7 121.5ZM34.2 107.4C33.3 107.4 32.7 106.7 32.7 105.9C32.7 105 33.4 104.4 34.2 104.4C35.1 104.4 35.7 105.1 35.7 105.9C35.7 106.8 35 107.4 34.2 107.4ZM44.8 84.7C44.8 84.8 43.5 70.3 32.6 70.3C43.6 70.3 44.8 56 44.8 56C44.8 56 46.1 70.3 57 70.3C46.1 70.3 44.8 84.7 44.8 84.7ZM82 44.9C82 45 81.5 39.5 77.2 39.5C81.5 39.5 82 34 82 34C82 34 82.5 39.5 86.8 39.4C82.5 39.4 82 44.9 82 44.9ZM103.6 90.2C103.6 90.3 103.5 87.4 101.1 87.4C103.4 87.4 103.7 84.8 103.7 84.8C103.7 84.8 104 87.4 106 87.4C103.9 87.4 103.6 90.2 103.6 90.2ZM100.3 70.5C104.4 65.6 104.8 65.6 113.2 68.6C112.2 74 108 74.6 100.3 70.5ZM121.3 73.5C120.3 74.4 119.3 75.3 118.3 76.2C117.2 74.5 115.6 73.1 115 71.2C114.8 70.7 117.3 68.5 118.5 68.5C122.3 68.6 126.1 69.5 130.4 70.2C128.7 74 123.4 75.6 121.3 73.5ZM132.4 92.7C131.1 92.7 130.1 91.6 130.1 90.4C130.1 89.2 131.2 88.1 132.4 88.1C133.7 88.1 134.7 89.2 134.7 90.4C134.7 91.6 133.7 92.7 132.4 92.7ZM137.3 29.8C136 29.8 135 28.7 135 27.5C135.1 26.2 136.1 25.2 137.3 25.2C138.6 25.2 139.6 26.3 139.6 27.5C139.6 28.8 138.5 29.8 137.3 29.8ZM163 81.5V82.1C163 82.1 161.6 66.4 148.9 66.4C161.7 66.4 163.1 51.9 163.1 51.9C163.1 51.9 164.5 66.7 177 66.8C164.4 66.9 163 81.5 163 81.5ZM183.4 94.2C182.5 94.2 181.9 93.5 181.9 92.7C181.9 91.9 182.6 91.2 183.4 91.2C184.2 91.2 184.9 91.9 184.9 92.7C184.9 93.5 184.2 94.2 183.4 94.2Z" fill="white"/>
<path d="M775.3 132.1C774.4 128.4 771.5 123.9 770 126.1C767.3 130.1 764.8 133.4 762.6 136C760.4 138.6 758.4 140.8 756.6 142.6C754.8 144.3 753.2 145.7 751.7 146.8C750.2 147.8 748.9 148.7 747.6 149.4C748.7 142.9 749.7 136.7 750.6 131C751 128.6 751.3 126.1 751.7 123.6C752.1 121.1 752.4 118.7 752.7 116.4C753 114.2 753.2 112.1 753.4 110.3C753.6 108.5 753.6 107 753.6 105.9C753.6 104.6 753.5 103.6 753.3 102.8C753.1 102.1 752.7 101.5 752.3 101.1C751.9 100.7 751.4 100.4 750.9 100.3C750.4 100.2 749.8 100.1 749.2 100.1C748.7 100.1 748.3 100.1 747.8 100.1C747.3 100.1 746.9 100.1 746.4 100.1C745.9 100.1 745.3 100.1 744.8 100C744.3 99.9 743.8 99.8 743.3 99.6C742.8 99.4 742.4 99.1 742.1 98.6C741.8 98.1 741.4 97.7 741.1 97.2C740.7 96.7 740.3 96.3 739.8 95.9C739.3 95.5 738.5 95.3 737.6 95.3C734.7 95.3 731.9 95.9 729.1 97.1C726.3 98.3 723.7 100 721.2 102.1C718.7 104.2 716.4 106.6 714.3 109.4C712.2 112.2 710.4 115.2 708.8 118.3C707.3 121.4 706.1 124.7 705.2 127.9C704.4 130.9 704 133.8 703.9 136.7C703.8 136.8 703.7 136.9 703.6 137C702.6 137.8 701.7 138.5 700.7 139.1C699.8 139.7 698.9 140.2 698.1 140.6C697.3 141 696.6 141.2 695.9 141.2C694.5 141.2 693.5 140.4 692.9 138.7C692.3 137 691.9 134.9 691.9 132.3C691.9 130.8 692 129.1 692.2 127.2C692.4 125.4 692.6 123.5 692.9 121.6C693.2 119.7 693.5 117.9 693.9 116.1C694.3 114.3 694.6 112.7 694.9 111.2C695.2 109.7 695.4 108.4 695.6 107.3C695.8 106.2 695.9 105.4 695.9 105C695.9 101.9 695.3 99.5 694.1 97.8C692.9 96.1 691.2 95.2 689.1 95.2C687 95.2 685.1 95.6 683.4 96.4C681.7 97.2 680.2 98.8 678.8 101C678.5 101.5 678.1 102.3 677.5 103.3C676.9 104.3 676.3 105.5 675.6 106.9C674.9 108.3 674.1 109.7 673.3 111.1C672.5 112.6 671.7 114 671 115.3C670.3 116.6 669.7 117.8 669.1 118.8C668.6 119.8 668.2 120.6 667.9 121H666.7C666.7 120.7 666.8 120.1 666.9 119.3C667 118.4 667.2 117.4 667.4 116.3C667.6 115.2 667.8 113.9 668 112.6C668.2 111.2 668.4 109.9 668.6 108.7C668.8 107.4 668.9 106.3 669.1 105.2C669.2 104.1 669.3 103.3 669.3 102.7C669.3 100.4 668.9 98.6 668 97.2C667.1 95.8 665.6 95.1 663.3 95.1C661 95.1 659.3 95.7 658 97C656.7 98.3 655.8 99.9 655.3 101.8C654.7 104.3 654.1 107.2 653.5 110.7C653.4 111.1 653.4 111.4 653.3 111.8C652.4 110.8 651.6 109.9 650.6 108.9C648 106.2 645.2 103.9 642.2 101.8C639.2 99.7 635.9 98.1 632.5 96.9C629 95.7 625.3 95.1 621.4 95.1C616.8 95.1 612.6 95.9 608.9 97.6C605.2 99.3 602.1 101.6 599.5 104.5C596.9 107.4 595 110.9 593.6 114.9C592.8 117.2 592.3 119.5 591.9 122C590.1 122.7 588.3 123.1 586.6 123.1C585.9 123.1 585.3 123 584.7 122.7C584.1 122.4 583.6 122 583.1 121.4C582.6 120.8 582.2 120 581.9 119C581.6 118 581.5 116.8 581.5 115.3C581.5 114.4 581.6 113.3 581.8 112C582 110.7 582.2 109.3 582.5 107.9C582.7 106.5 583 105.2 583.2 103.9C583.4 102.6 583.5 101.6 583.5 100.9C583.5 100 583.3 99.2 583 98.4C582.7 97.7 582.2 97.1 581.7 96.6C581.1 96.1 580.5 95.7 579.7 95.4C578.9 95.1 578.2 95 577.4 95C575.1 95 573.1 95.6 571.3 96.8C569.6 98 568 99.5 566.6 101.3C565.2 103.1 564 105 563 107.1C562 109.2 561 111 560.2 112.7H559.5C559.4 110.6 559.4 108.4 559.4 106.2C559.4 104 559.4 102.1 559.4 100.6C559.4 99.3 559.4 98.3 559.3 97.5C559.2 96.8 559.1 96.2 558.8 95.8C558.5 95.4 558.1 95.2 557.5 95.1C556.9 95 556.1 94.9 555 94.9C554 94.9 553.2 95 552.6 95.1C552 95.2 551.4 95.4 551 95.7C550.6 96 550.2 96.4 549.8 97C549.5 97.5 549.1 98.3 548.8 99.2C548.3 100.6 547.7 102.3 547.2 104.4C546.7 106.5 546.1 108.9 545.6 111.4C545.1 113.9 544.5 116.6 544.1 119.4C543.8 121.4 543.5 123.4 543.2 125.3C542.1 126.5 540.8 127.7 539.5 128.9C538 130.2 536.3 131.5 534.7 132.6C533 133.8 531.3 134.9 529.6 135.9C527.9 136.9 526.2 137.8 524.7 138.5C523.1 139.2 521.7 139.8 520.4 140.2C519.1 140.6 518 140.8 517.1 140.8C515.7 140.8 514.4 140.6 513.3 140.1C512.2 139.7 511.2 139 510.4 138C509.6 137 509 135.8 508.6 134.2C508.2 132.7 508 130.8 508 128.5C508 127.6 508 126.7 508 125.6C508 124.6 508.1 123.5 508.1 122.4C508.1 121.3 508.2 120.1 508.2 119C508.2 117.9 508.3 116.7 508.3 115.7C508.4 113.2 508.6 110.7 508.7 108.1C509.7 106.8 510.9 105.4 512.1 103.8C513.3 102.2 514.5 100.6 515.8 98.9H539.8C540.8 98.9 541.7 98.4 542.5 97.5C543.3 96.6 543.7 95.4 543.7 93.9C543.7 92.7 543.5 91.7 543.1 90.9C542.7 90.1 542.1 89.7 541.3 89.7C540.6 89.7 539.7 89.6 538.6 89.6C537.5 89.6 536.4 89.5 535.1 89.5C533.9 89.5 532.6 89.4 531.2 89.3C529.9 89.2 528.6 89.2 527.5 89.1C526.4 89.1 525.3 89 524.5 89C523.6 89 523 88.9 522.6 88.9C524.1 86.5 525.5 84.1 526.9 81.7C528.3 79.3 529.4 76.9 530.4 74.5C531.4 72.1 532.2 69.8 532.8 67.6C533.4 65.3 533.7 63.2 533.7 61.1C533.7 58.7 533.4 56.4 532.9 54.1C532.3 51.9 531.5 49.9 530.5 48.3C529.5 46.6 528.2 45.3 526.7 44.3C525.2 43.3 523.6 42.8 521.8 42.8C519 42.8 516.3 44 513.8 46.5C511.3 49 508.9 52.3 506.8 56.4C504.7 60.5 502.7 65.2 501 70.5C499.3 75.8 497.8 81.2 496.7 86.8C496.3 86.9 495.5 86.9 494.4 86.9C493.3 86.9 492 86.8 490.7 86.8C489.3 86.8 487.8 86.7 486.3 86.8C484.8 86.8 483.4 86.9 482.1 87.1C480.8 87.3 479.8 87.6 479 88.1C478.2 88.5 477.8 89.2 477.8 90C477.8 90.4 477.8 90.8 477.9 91.3C477.9 91.8 478.1 92.3 478.3 92.8C478.6 93.3 478.9 93.7 479.5 94C480 94.4 480.8 94.6 481.8 94.7C484 95 485.8 95.2 487 95.3C488.2 95.5 489.2 95.6 489.9 95.8C490.7 95.9 491.4 96.1 492.1 96.2C492.8 96.3 493.8 96.5 495 96.7C494.6 99.5 494.3 102.3 494.1 105.1C493.9 107.9 493.8 110.6 493.8 113.1C493.8 118.8 494.1 124 494.8 128.7C493.8 129.3 492.8 129.9 491.8 130.5C489.8 131.6 487.9 132.5 486 133.4C484.1 134.3 482.3 135.1 480.6 135.9C478.9 136.7 477.3 137.6 475.8 138.6C475.8 135.9 475.7 133.6 475.5 131.7C475.3 129.7 475.1 128 474.8 126.5C474.5 125 474.2 123.7 473.8 122.5C473.5 121.4 473.1 120.3 472.8 119.3C472.5 118.3 472.2 117.2 472.1 116.2C471.9 115.1 471.8 114 471.8 112.7C471.9 112.2 472.4 111.5 473.3 110.6C474.2 109.7 475.1 108.6 476 107.5C477 106.4 477.8 105.2 478.6 104C479.4 102.8 479.8 101.7 479.8 100.7C479.8 100.2 479.8 99.6 479.7 98.9C479.6 98.2 479.3 97.6 478.8 96.9C478.3 96.3 477.5 95.7 476.4 95.3C475.3 94.9 473.8 94.6 471.8 94.6C470.6 94.6 469.5 94.8 468.5 95.1C467.5 95.5 466.6 95.9 465.8 96.5C465 97.1 464.2 97.7 463.6 98.4C462.9 99.1 462.3 99.8 461.8 100.6C459.1 103.9 457 106.7 455.3 108.9C453.6 111.1 452.2 113 451.1 114.6C449.9 116.1 448.9 117.5 448.1 118.6C447.2 119.7 446.3 120.8 445.3 121.9C444.3 123 443 124.2 441.6 125.6C440.1 126.9 438.2 128.6 435.9 130.6C435.6 130.9 435.1 131.3 434.4 131.8C433.7 132.3 433.1 132.9 432.4 133.5C431.7 134.2 431.2 134.9 430.7 135.8C430.4 136.4 430.1 137 430 137.7C429 138.3 428.1 138.7 427.2 139.1C426.2 139.5 425.3 139.7 424.5 139.7C423.7 139.7 423 139 422.4 137.6C421.8 136.2 421.5 134.4 421.5 132.1C421.5 129.2 421.6 126.5 421.9 123.9C422.2 121.3 422.5 118.8 422.9 116.3C423.3 113.8 423.6 111.3 423.9 108.7C424.2 106.1 424.3 103.4 424.3 100.5C424.3 98.6 423.6 97.2 422.3 96.2C420.9 95.2 419.3 94.7 417.3 94.7C415.6 94.7 414.1 95.3 412.9 96.4C411.7 97.5 410.5 99 409.3 100.6C408.1 102.3 406.7 104.3 405.3 106.5C403.9 108.7 402.5 110.9 401.2 112.9C399.9 114.9 398.9 116.7 398 118.1C397.1 119.5 396.6 120.3 396.6 120.4L395.9 119.6C395.9 119.5 395.9 119.4 396 119.1C396 118.9 396.2 118.2 396.4 117.3C396.7 115.9 397 114.6 397.3 113.3C397.6 112 398 110.6 398.3 109.3C398.6 107.9 398.9 106.5 399.1 105.1C399.3 103.6 399.4 102.1 399.4 100.5C399.4 98.6 398.8 97.2 397.5 96.2C396.3 95.2 394.8 94.7 393 94.7C391.1 94.7 389.5 95.3 388.2 96.4C386.8 97.5 385.6 98.9 384.4 100.6C383.2 102.3 381.8 104.3 380.5 106.5C379.1 108.7 377.8 110.9 376.7 112.9C375.5 114.9 374.5 116.7 373.7 118.1C372.9 119.6 372.4 120.3 372.4 120.5L371.7 119.7C372.1 117.1 372.5 114.5 372.9 112.1C373.1 111.1 373.2 110 373.4 108.9C373.5 107.8 373.7 106.7 373.8 105.7C373.9 104.7 374 103.7 374.1 102.8C374.2 101.9 374.2 101.1 374.2 100.4C374.2 99.1 374.2 98.1 374.1 97.3C374 96.6 373.8 96 373.3 95.6C372.9 95.2 372.2 95 371.3 94.9C370.4 94.8 369.2 94.7 367.6 94.7C366.6 94.7 365.7 94.8 365 94.9C364.3 95 363.8 95.3 363.3 95.8C362.8 96.2 362.4 96.9 362 97.6C361.6 98.4 361.2 99.5 360.8 100.8C360.4 102.1 359.9 103.8 359.4 105.8C358.9 107.8 358.4 110.1 357.9 112.5C357.5 114.8 357 117.2 356.6 119.7C355.5 120.3 354.4 120.8 353.2 121.3C351.2 122.1 349.3 122.5 347.4 122.5C346.7 122.5 346.1 122.4 345.5 122.1C344.9 121.8 344.4 121.4 343.9 120.8C343.4 120.2 343 119.4 342.7 118.4C342.4 117.4 342.3 116.2 342.3 114.7C342.3 113.8 342.4 112.7 342.6 111.4C342.8 110.1 343 108.7 343.3 107.3C343.5 105.9 343.8 104.6 344 103.3C344.2 102 344.3 101 344.3 100.3C344.3 99.4 344.1 98.6 343.8 97.8C343.5 97.1 343 96.5 342.5 96C341.9 95.5 341.3 95.1 340.5 94.8C339.8 94.5 339 94.4 338.2 94.4C335.9 94.4 333.9 95 332.1 96.2C330.4 97.4 328.8 98.9 327.4 100.7C326 102.5 324.8 104.4 323.8 106.5C322.8 108.6 321.8 110.4 321 112.1H320.3C320.2 110 320.2 107.8 320.2 105.6C320.2 103.4 320.2 101.5 320.2 100C320.2 98.7 320.2 97.7 320.1 96.9C320 96.2 319.9 95.6 319.6 95.2C319.3 94.8 318.9 94.6 318.3 94.5C317.7 94.4 316.9 94.3 315.8 94.3C314.8 94.3 314 94.4 313.4 94.5C312.8 94.6 312.2 94.8 311.8 95.1C311.4 95.4 311 95.8 310.6 96.4C310.3 96.9 309.9 97.7 309.6 98.6C309.1 100 308.5 101.7 308 103.8C307.5 105.9 306.9 108.3 306.4 110.8C305.9 113.3 305.3 116 304.9 118.8C304.4 121.6 304 124.4 303.7 127.1C303.6 128 303.5 128.8 303.4 129.6C302.5 130.7 301.6 131.7 300.7 132.7C299.8 133.7 298.9 134.6 297.9 135.5C296.9 136.4 295.9 137.2 295 137.9C294 138.6 293.1 139.2 292.1 139.6C291.1 140 290.2 140.3 289.4 140.3C288.2 140.3 287.5 139.7 287.1 138.6C286.7 137.5 286.6 136 286.6 134C286.6 131.7 286.8 129.3 287.2 126.7C287.6 124.1 288.1 121.6 288.6 119C289.1 116.4 289.6 113.9 290 111.5C290.4 109.1 290.6 106.8 290.6 104.8C290.6 103.5 290.5 102.5 290.3 101.7C290.1 101 289.7 100.4 289.3 100C288.9 99.6 288.4 99.3 287.9 99.2C287.4 99.1 286.8 99 286.2 99C285.7 99 285.3 99 284.8 99C284.3 99 283.9 99 283.4 99C282.9 99 282.3 99 281.8 98.9C281.3 98.8 280.8 98.7 280.3 98.5C279.8 98.3 279.4 98 279.1 97.5C278.8 97 278.4 96.6 278.1 96.1C277.7 95.6 277.3 95.2 276.8 94.8C276.3 94.4 275.5 94.2 274.6 94.2C271.7 94.2 268.9 94.8 266.1 96C263.3 97.2 260.7 98.9 258.2 101C255.7 103.1 253.4 105.5 251.3 108.3C249.2 111.1 247.4 114.1 245.8 117.2C244.3 120.3 243.1 123.6 242.2 126.8C241.3 130.1 240.9 133.3 240.9 136.4C240.9 139.1 241.3 141.6 242.2 143.8C243.1 146 244.2 147.8 245.7 149.4C247.2 150.9 248.8 152.1 250.7 152.9C252.6 153.7 254.5 154.1 256.5 154.1C258.4 154.1 260.2 153.8 262.1 153.2C264 152.6 265.8 151.8 267.5 150.8C269.2 149.8 270.8 148.7 272.3 147.5C273.8 146.3 275 145.1 276 143.9C277.3 147.3 278.9 149.8 280.7 151.6C282.5 153.4 284.8 154.3 287.6 154.3C289.9 154.3 292.2 153.7 294.5 152.6C296.8 151.5 298.9 150.1 300.9 148.5C301.7 147.8 302.5 147.2 303.2 146.5C303.4 147.8 303.7 148.9 304.2 150C304.8 151.2 305.6 152.2 306.6 152.9C307.6 153.6 309 154 310.7 154C311.4 154 312.1 153.9 312.8 153.6C313.4 153.3 314 152.9 314.5 152.2C315 151.5 315.6 150.7 316.1 149.6C316.6 148.5 317.2 147.2 317.8 145.6L329 114.4H330C330.3 117 330.8 119.6 331.3 122.2C331.8 124.8 332.7 127.1 333.8 129.1C334.9 131.1 336.4 132.8 338.4 134.1C340.3 135.4 342.8 136 346 136C347.7 136 349.5 135.7 351.2 135.2C352.6 134.8 354 134.2 355.4 133.6C355.4 134 355.3 134.5 355.3 134.9C355.1 137.2 355 139.3 355 141C355 142.7 355.1 144.3 355.3 145.8C355.5 147.4 355.9 148.8 356.4 150C357 151.2 357.8 152.2 358.8 152.9C359.8 153.6 361.2 154 362.9 154C364.2 154 365.5 153.7 366.6 153.1C367.7 152.5 368.7 151.3 369.5 149.6C372.4 143.8 374.7 139 376.5 135.1C378.3 131.2 379.8 128.1 381 125.7C382.2 123.3 383.1 121.5 383.7 120.2C384.3 119 384.9 118 385.4 117.4H386.3C385.6 121.2 385.1 124.8 384.6 128.1C384.4 129.5 384.2 130.9 384 132.4C383.8 133.8 383.6 135.2 383.4 136.5C383.2 137.8 383.1 138.9 383 139.9C382.9 140.9 382.9 141.7 382.9 142.2C382.9 143.5 383 144.8 383.1 146.2C383.2 147.6 383.5 148.8 384 150C384.4 151.1 385.1 152.1 385.8 152.8C386.6 153.5 387.7 153.9 389 153.9C390.7 153.9 392.3 153.6 393.6 153C394.9 152.4 396.1 151.2 397.2 149.5L409.9 117.2H410.8C410.5 120.2 410.2 123.2 410 126.1C409.8 129 409.7 131.8 409.7 134.4C409.7 137.2 409.8 139.8 410.1 142.1C410.4 144.5 410.8 146.5 411.4 148.3C412 150 412.8 151.4 413.9 152.4C414.9 153.4 416.2 153.9 417.7 153.9C420.7 153.9 423.5 153.5 425.9 152.7C428.3 151.9 430.5 150.8 432.6 149.6C434.6 148.3 436.5 146.9 438.3 145.4C438.6 145.1 439 144.8 439.3 144.5C439.6 145.7 440.1 146.8 440.7 147.8C441.7 149.4 443 150.7 444.6 151.6C446.2 152.6 448.1 153.3 450.2 153.8C452.3 154.3 454.6 154.5 457.1 154.5C460.5 154.5 464.1 154.1 467.9 153.3C471.7 152.5 475.5 151.5 479.2 150.1C482.9 148.8 486.5 147.2 489.9 145.5C493.2 143.8 496.1 142 498.6 140.1C498.9 141 499.3 141.9 499.7 142.8C501.3 146.4 503.3 149.2 505.8 151.1C508.2 153 511 154 514.2 154C515.7 154 517.5 153.7 519.4 153.1C521.3 152.5 523.5 151.6 525.9 150.5C528.3 149.3 531.1 147.9 534.2 146.1C536.8 144.6 539.7 143 542.9 141.1C542.9 142.7 543 144.3 543.2 145.8C543.4 147.4 543.8 148.8 544.3 150C544.9 151.2 545.7 152.2 546.7 152.9C547.7 153.6 549.1 154 550.8 154C551.6 154 552.2 153.9 552.9 153.6C553.5 153.3 554.1 152.9 554.6 152.2C555.1 151.5 555.7 150.7 556.2 149.6C556.7 148.5 557.3 147.2 557.9 145.6L569.1 114.4H570.1C570.4 117 570.9 119.6 571.4 122.2C571.9 124.8 572.8 127.1 573.9 129.1C575 131.2 576.5 132.8 578.5 134.1C580.4 135.4 582.9 136 586.1 136C587.8 136 589.6 135.7 591.3 135.2C592.1 134.9 592.9 134.7 593.7 134.3C593.8 135 594 135.8 594.2 136.5C595 139.7 596.2 142.7 597.9 145.2C599.6 147.8 601.7 149.9 604.3 151.5C606.9 153.1 610 153.9 613.7 153.9C616.2 153.9 618.6 153.5 620.9 152.6C623.1 151.7 625.2 150.5 627.1 149C629 147.5 630.7 145.7 632.2 143.7C633.7 141.7 634.9 139.5 635.9 137.1C636.9 134.8 637.7 132.4 638.2 129.9C638.7 127.4 639 124.9 639 122.5C639 120 638.7 117.5 638.1 114.8C637.5 112.1 636.6 109.6 635.4 107.1L635.9 106.4C637.4 107.4 639.2 108.6 641.3 110.1C643.4 111.6 645.5 113.2 647.6 114.8C649.6 116.4 651.6 118 653.4 119.7C653.4 119.9 653.3 120.1 653.3 120.3C652.8 124 652.4 127.7 652.1 131.3C651.8 134.9 651.6 138.1 651.6 140.8C651.6 142.5 651.7 144.1 651.9 145.6C652.1 147.2 652.5 148.6 653 149.8C653.6 151 654.4 152 655.4 152.7C656.4 153.4 657.8 153.8 659.5 153.8C660.9 153.8 662.1 153.5 663.1 152.9C664.1 152.3 665.1 151.1 665.9 149.4L682.3 116.9H683.3C682.8 120.2 682.4 123.3 682 126.2C681.7 129.1 681.5 131.8 681.5 134.3C681.5 140.7 682.3 145.5 683.8 148.8C685.4 152.1 687.3 153.8 689.6 153.8C691.9 153.8 694.1 153.5 696.2 152.8C698.3 152.2 700.3 151.3 702.2 150.3C704.1 149.3 706 148.1 707.7 146.8C707.9 146.7 708 146.6 708.2 146.5C708.8 147.5 709.5 148.4 710.3 149.2C711.8 150.7 713.4 151.9 715.3 152.7C717.2 153.5 719.1 153.9 721.1 153.9C723.4 153.9 725.8 153.3 728.2 152.1C730.6 150.9 733 149.3 735.2 147.3L733.5 153.1C730.5 155.6 727.5 158.1 724.6 160.8C721.7 163.5 718.9 166.3 716.2 169C713.5 171.8 711 174.6 708.7 177.4C706.4 180.2 704.4 182.9 702.8 185.5C701.1 188.1 699.8 190.6 698.9 192.9C697.9 195.3 697.5 197.4 697.5 199.2C697.5 201.9 698 204.1 698.9 205.7C699.8 207.3 701 208.6 702.4 209.4C703.8 210.3 705.3 210.9 707 211.1C708.6 211.4 710.2 211.5 711.6 211.5C715.2 211.5 718.4 210.9 721.4 209.7C724.4 208.5 727 206.8 729.4 204.5C731.8 202.3 733.9 199.6 735.8 196.6C737.7 193.5 739.4 190.1 740.9 186.4C742.4 182.7 743.7 178.8 744.7 174.5C745.8 170.3 746.7 165.9 747.5 161.5C751.6 159 755.4 156.4 758.9 153.8C760.4 152.7 761.9 151.5 763.5 150.2C765.1 148.9 766.6 147.6 768 146.3C769.4 144.9 770.7 143.6 771.9 142.2C773.1 140.8 774.1 139.5 774.8 138.2C773.9 138.4 776.2 135.8 775.3 132.1ZM510.6 77.4C511.5 73.8 512.5 70.5 513.5 67.6C514.5 64.6 515.6 62.2 516.7 60.3C517.8 58.4 518.9 57.4 520 57.4C520.8 57.4 521.4 57.6 521.8 57.9C522.2 58.2 522.6 58.6 522.8 59.1C523 59.6 523.1 60.1 523.2 60.7C523.3 61.3 523.3 61.8 523.3 62.2C523.3 63.5 522.9 65.2 522.2 67.3C521.5 69.4 520.6 71.6 519.5 74C518.4 76.4 517.2 78.8 515.8 81.3C514.4 83.8 513.1 86.1 511.9 88.2C511.2 88.1 510.6 88 510 88C509.4 87.9 508.8 87.9 508.1 87.8C508.9 84.4 509.7 81 510.6 77.4ZM271 125.7C270.8 127 270.5 128.7 269.9 130.7C269.3 132.7 268.6 134.6 267.7 136.5C266.8 138.4 265.7 140 264.5 141.3C263.3 142.6 261.9 143.3 260.3 143.3C259.3 143.3 258.6 143.1 257.9 142.6C257.3 142.1 256.8 141.5 256.4 140.7C256 139.9 255.8 139.1 255.6 138.1C255.5 137.1 255.4 136.1 255.4 135.1C255.4 133.3 255.6 131.3 256.1 129.2C256.6 127.1 257.3 125 258.1 123C259 120.9 260 119 261.2 117.1C262.4 115.2 263.7 113.6 265.2 112.1C266.6 110.6 268.2 109.5 269.8 108.6C271.4 107.7 273.1 107.3 274.8 107.3L271 125.7ZM461.2 139.2C460.9 140.4 460.5 141.4 459.9 142.3C459.3 143.2 458.4 143.9 457.4 144.5C456.3 145 455 145.3 453.4 145.3C452.1 145.3 450.9 145 449.8 144.4C448.8 143.8 447.8 143.1 447.1 142.3C446.3 141.6 445.6 140.9 445 140.2C444.4 139.6 443.8 139.3 443.3 139.3L459.4 123.3C459.6 124 459.8 124.8 460.1 125.7C460.4 126.6 460.6 127.6 460.8 128.7C461 129.8 461.2 130.9 461.4 132C461.5 133.2 461.6 134.3 461.6 135.4C461.6 136.8 461.4 138 461.2 139.2ZM624.4 128.4C623.8 131 623 133.5 622 135.6C621 137.8 619.8 139.6 618.5 141C617.2 142.4 615.8 143.2 614.4 143.2C612.8 143.2 611.4 142.9 610.2 142.2C609 141.5 608.1 140.6 607.4 139.5C606.7 138.4 606.2 137 605.8 135.5C605.5 134 605.3 132.3 605.3 130.6C605.3 128.1 605.6 125.4 606.3 122.7C607 120 607.9 117.4 609 115.2C610.2 112.9 611.5 111.1 613.1 109.6C614.6 108.1 616.3 107.4 618 107.4C619.3 107.4 620.4 107.8 621.3 108.5C622.2 109.2 623 110.2 623.5 111.4C624.1 112.6 624.5 114 624.8 115.7C625.1 117.3 625.2 119.1 625.2 121C625.3 123.3 625 125.8 624.4 128.4ZM728.3 176.9C727.7 179 727 181.2 726.2 183.4C725.4 185.6 724.4 187.8 723.3 189.9C722.2 192 721 193.9 719.7 195.6C718.4 197.3 717 198.6 715.4 199.6C713.8 200.6 712.2 201.1 710.4 201.1C708.7 201.1 707.9 200.3 707.9 198.8C707.9 197.8 708.2 196.6 708.8 195.2C709.4 193.8 710.3 192.2 711.4 190.5C712.5 188.8 713.7 187.1 715.2 185.2C716.6 183.4 718.2 181.6 719.8 179.9C721.4 178.2 723 176.6 724.7 175.1C726.4 173.6 728 172.3 729.7 171.2C729.4 172.9 728.9 174.8 728.3 176.9ZM735.3 125.7C735.1 127 734.8 128.7 734.2 130.7C733.6 132.7 732.9 134.6 732 136.5C731.1 138.4 730 140 728.8 141.3C727.6 142.6 726.2 143.3 724.6 143.3C723.6 143.3 722.9 143.1 722.2 142.6C721.6 142.1 721.1 141.5 720.7 140.7C720.3 139.9 720.1 139.1 719.9 138.1C719.8 137.1 719.7 136.1 719.7 135.1C719.7 133.3 719.9 131.3 720.4 129.2C720.9 127.1 721.6 125 722.4 123C723.3 120.9 724.3 119 725.5 117.1C726.7 115.2 728 113.6 729.5 112.1C730.9 110.6 732.5 109.5 734.1 108.6C735.7 107.7 737.4 107.3 739.1 107.3L735.3 125.7Z" fill="white"/>
</g>
<defs>
<clipPath id="clip0">
<rect width="775.5" height="217.6" fill="white"/>
</clipPath>
</defs>
</svg>
