<?xml version="1.0" encoding="utf-8"?>
<!-- Generator: Adobe Illustrator 23.0.4, SVG Export Plug-In . SVG Version: 6.00 Build 0)  -->
<svg version="1.1" id="Layer_1" xmlns="http://www.w3.org/2000/svg" xmlns:xlink="http://www.w3.org/1999/xlink" x="0px" y="0px"
	 viewBox="0 0 183 203" style="enable-background:new 0 0 183 203;" xml:space="preserve">
<style type="text/css">
	.st0{fill:url(#SVGID_1_);}
	.st1{fill:url(#SVGID_2_);}
	.st2{fill:url(#SVGID_3_);}
	.st3{fill:none;stroke:#CCCCCC;stroke-width:3;stroke-miterlimit:10;}
	.st4{fill:none;stroke:#999999;stroke-width:3;stroke-miterlimit:10;}
	.st5{fill:none;stroke:#FFFFFF;stroke-width:2;stroke-miterlimit:10;}
	.st6{fill:url(#SVGID_4_);}
	.st7{fill:url(#SVGID_5_);}
	.st8{fill:none;stroke:#999999;stroke-width:0.7456;stroke-miterlimit:10;stroke-opacity:0.4;}
	.st9{fill:none;stroke:#999999;stroke-width:1.2014;stroke-miterlimit:10;stroke-opacity:0.4;}
	.st10{fill:none;stroke:#999999;stroke-width:0.9532;stroke-miterlimit:10;stroke-opacity:0.4;}
	.st11{fill:#999999;}
	.st12{fill:url(#SVGID_6_);}
	.st13{fill:url(#SVGID_7_);stroke:#B1B2B2;stroke-width:2;stroke-miterlimit:10;}
	.st14{fill:url(#SVGID_8_);}
	.st15{fill:url(#SVGID_9_);}
</style>
<g>
	<g>
		
			<linearGradient id="SVGID_1_" gradientUnits="userSpaceOnUse" x1="141.052" y1="-110.956" x2="20.22" y2="-5.8263" gradientTransform="matrix(1 0 0 -1 0 48)">
			<stop  offset="0" style="stop-color:#FFFFFF"/>
			<stop  offset="0.7767" style="stop-color:#E2E2E2"/>
			<stop  offset="1" style="stop-color:#CCCCCC"/>
		</linearGradient>
		<polygon class="st0" points="176.8,112.1 60.1,198.7 0.6,167.1 33.5,21.5 51.7,7.8 81.7,5.2 118.6,15.9 146.9,33.7 168.5,55 
			180.3,82.5 180.2,105.2 		"/>
	</g>
</g>
<linearGradient id="SVGID_2_" gradientUnits="userSpaceOnUse" x1="188.9126" y1="-37.0553" x2="52.336" y2="46.0105" gradientTransform="matrix(1 0 0 -1 0 48)">
	<stop  offset="0" style="stop-color:#666666"/>
	<stop  offset="0.1801" style="stop-color:#616161"/>
	<stop  offset="0.3863" style="stop-color:#535353"/>
	<stop  offset="0.6054" style="stop-color:#3C3C3C"/>
	<stop  offset="0.8319" style="stop-color:#1D1D1D"/>
	<stop  offset="1" style="stop-color:#000000"/>
</linearGradient>
<path class="st1" d="M128.2,30.4c33.8,21.4,52.7,54.8,48.5,81.7c16.7-27-1.5-68.9-40.9-93.8C96.5-6.5,50.8-5.1,33.5,21.5
	C56,6.3,94.4,9,128.2,30.4z"/>
<linearGradient id="SVGID_3_" gradientUnits="userSpaceOnUse" x1="61.6208" y1="-150.2451" x2="4.8456" y2="-114.0491" gradientTransform="matrix(1 0 0 -1 0 48)">
	<stop  offset="0" style="stop-color:#666666"/>
	<stop  offset="0.1801" style="stop-color:#616161"/>
	<stop  offset="0.3863" style="stop-color:#535353"/>
	<stop  offset="0.6054" style="stop-color:#3C3C3C"/>
	<stop  offset="0.8319" style="stop-color:#1D1D1D"/>
	<stop  offset="1" style="stop-color:#000000"/>
</linearGradient>
<path class="st2" d="M2,161.9c4.8-8.2,22.1-7.1,38.7,2.6c16.6,9.6,26.2,24.1,21.4,32.4S40,204,23.4,194.3S-2.8,170.1,2,161.9z"/>
<path class="st3" d="M146,61.9c1.3,1.1,1.9,2.6,1.2,3.3l-10.9,12.9c-0.6,0.7-2.2,0.4-3.4-0.6"/>
<path class="st4" d="M76.7,45.2c-1.5-0.7-2.4-2-2-2.9l7.4-15.1c0.4-0.8,2-0.9,3.5-0.2"/>
<path class="st5" d="M134.3,19.1l-6.1,8.7"/>
<path class="st5" d="M139.2,22.7l-6,8.4"/>
<path class="st5" d="M129.3,16.1l-5.7,8.5"/>
<path class="st5" d="M144.1,26.3l-6.4,7.9"/>
<path class="st5" d="M123.9,13.5l-5.2,8.5"/>
<path class="st5" d="M148.6,30.2l-6.4,7.4"/>
<linearGradient id="SVGID_4_" gradientUnits="userSpaceOnUse" x1="46.5837" y1="-141.6129" x2="8.3445" y2="-132.4938" gradientTransform="matrix(1 0 0 -1 0 48)">
	<stop  offset="0" style="stop-color:#FFFDFC"/>
	<stop  offset="0.4345" style="stop-color:#FFFFFF"/>
	<stop  offset="0.7767" style="stop-color:#E2E2E2"/>
	<stop  offset="1" style="stop-color:#CCCCCC"/>
</linearGradient>
<path class="st6" d="M10.2,174.4c3.7-5.9,14.3-5.9,23.9,0c9.5,5.9,14.3,15.4,10.6,21.3c-3.7,5.9-14.3,5.9-23.9,0
	C11.3,189.9,6.6,180.3,10.2,174.4z"/>
<linearGradient id="SVGID_5_" gradientUnits="userSpaceOnUse" x1="38.2334" y1="-153.5046" x2="15.0445" y2="-124.9557" gradientTransform="matrix(1 0 0 -1 0 48)">
	<stop  offset="0" style="stop-color:#666666"/>
	<stop  offset="0.1801" style="stop-color:#616161"/>
	<stop  offset="0.3863" style="stop-color:#535353"/>
	<stop  offset="0.6054" style="stop-color:#3C3C3C"/>
	<stop  offset="0.8319" style="stop-color:#1D1D1D"/>
	<stop  offset="1" style="stop-color:#000000"/>
</linearGradient>
<path class="st7" d="M9.5,176.3c3.7-5.9,14.1-6,23.3-0.3s13.7,15.1,10.1,21c-3.7,5.9-14.1,6-23.3,0.3
	C10.3,191.6,5.8,182.2,9.5,176.3z"/>
<path class="st8" d="M127,29.2l-86.8,135"/>
<path class="st9" d="M27,51.8c19.6-5.1,45.8-0.1,71.6,14.6c30.5,17.4,50,43.7,51.1,65.6"/>
<path class="st10" d="M17.2,95.6c15.5-4,35.9,0.2,56.3,11.8c24.2,13.8,39.7,33.2,40.5,50.6"/>
<path class="st8" d="M9.1,131.2c12.1-3.4,28.5-0.8,44.7,7.9c19.2,10.3,32,26,33,39.6"/>
<path class="st11" d="M95.8,123.8l5,4.8c0.6,0.6,0.6,1.6,0.1,2.2l-1.7,1.8c-0.6,0.6-1.6,0.6-2.2,0.1l-5-4.7
	c-0.6-0.6-0.6-1.6-0.1-2.2l1.7-1.8C94.2,123.3,95.2,123.2,95.8,123.8z"/>
<path class="st11" d="M101.5,117.9l5,4.7c0.6,0.6,0.6,1.6,0.1,2.2l-1.7,1.8c-0.6,0.6-1.6,0.6-2.2,0.1l-5-4.7
	c-0.6-0.6-0.6-1.6-0.1-2.2l1.7-1.8C99.9,117.3,100.9,117.3,101.5,117.9z"/>
<radialGradient id="SVGID_6_" cx="-278.2281" cy="290.6786" r="1.0003" gradientTransform="matrix(-20.8406 -3.7547 -3.7486 20.8069 -4633.3892 -6986.4619)" gradientUnits="userSpaceOnUse">
	<stop  offset="0" style="stop-color:#FFFFFF"/>
	<stop  offset="0.1849" style="stop-color:#FCFEFF"/>
	<stop  offset="0.3406" style="stop-color:#F1FBFD"/>
	<stop  offset="0.4856" style="stop-color:#E0F5FB"/>
	<stop  offset="0.6242" style="stop-color:#C7EEF7"/>
	<stop  offset="0.7583" style="stop-color:#A8E4F3"/>
	<stop  offset="0.8871" style="stop-color:#81D8EE"/>
	<stop  offset="1" style="stop-color:#59CCE8"/>
</radialGradient>
<path class="st12" d="M75.4,85.2c-11.7,0-21.2,9.5-21.2,21.2s9.5,21.2,21.2,21.2s21.2-9.5,21.2-21.2C96.6,94.6,87.1,85.2,75.4,85.2z
	"/>
<linearGradient id="SVGID_7_" gradientUnits="userSpaceOnUse" x1="102.9972" y1="-60.8342" x2="47.5024" y2="-56.3658" gradientTransform="matrix(1 0 0 -1 0 48)">
	<stop  offset="0" style="stop-color:#999999"/>
	<stop  offset="0.1851" style="stop-color:#A0A0A0"/>
	<stop  offset="0.4464" style="stop-color:#B2B2B2"/>
	<stop  offset="0.7514" style="stop-color:#D0D0D0"/>
	<stop  offset="1" style="stop-color:#EEEEEE"/>
</linearGradient>
<path class="st13" d="M73.6,126.9c-11.2-0.9-19.7-10.8-18.8-22s10.8-19.6,22-18.7c11.2,0.9,19.7,10.8,18.8,22
	C94.7,119.4,84.8,127.8,73.6,126.9z M73,134.3c15.3,1.2,28.7-10.2,30-25.5c1.2-15.3-10.2-28.7-25.5-29.9
	c-15.3-1.2-28.8,10.2-30,25.5C46.2,119.6,57.7,133.1,73,134.3z"/>
<linearGradient id="SVGID_8_" gradientUnits="userSpaceOnUse" x1="161.0698" y1="-54.2139" x2="153.8162" y2="-48.6754" gradientTransform="matrix(1 0 0 -1 0 48)">
	<stop  offset="0" style="stop-color:#666666"/>
	<stop  offset="0.1801" style="stop-color:#616161"/>
	<stop  offset="0.3863" style="stop-color:#535353"/>
	<stop  offset="0.6054" style="stop-color:#3C3C3C"/>
	<stop  offset="0.8319" style="stop-color:#1D1D1D"/>
	<stop  offset="1" style="stop-color:#000000"/>
</linearGradient>
<path class="st14" d="M159.5,93.4c0.8,0,1.5,0.2,2.1,0.6c0.9,0.7,1.4,1.9,1.4,3.4c-0.1,1.6-0.7,3.3-1.9,4.8c-1.5,2-3.7,3.3-5.7,3.3
	c-0.8,0-1.5-0.2-2.1-0.6c-0.9-0.7-1.4-1.9-1.4-3.4c0.1-1.6,0.7-3.3,1.9-4.8C155.4,94.7,157.5,93.4,159.5,93.4z"/>
<path class="st11" d="M155.4,104.7c-0.6,0-1.2-0.2-1.6-0.5c-1.6-1.2-1.4-4.5,0.6-7.1c1.4-1.8,3.4-3,5.1-3c0.6,0,1.2,0.2,1.6,0.5
	c1.6,1.2,1.4,4.5-0.6,7.1C159.1,103.6,157.1,104.7,155.4,104.7z M155.4,106.3c2.1,0,4.5-1.3,6.3-3.6c2.5-3.3,2.7-7.5,0.3-9.2
	c-0.7-0.6-1.6-0.8-2.6-0.8c-2.1,0-4.5,1.3-6.3,3.6c-2.5,3.3-2.7,7.5-0.3,9.2C153.6,106,154.5,106.3,155.4,106.3z"/>
<linearGradient id="SVGID_9_" gradientUnits="userSpaceOnUse" x1="48.7195" y1="13.3861" x2="40.103" y2="16.4064" gradientTransform="matrix(1 0 0 -1 0 48)">
	<stop  offset="0" style="stop-color:#666666"/>
	<stop  offset="0.1801" style="stop-color:#616161"/>
	<stop  offset="0.3863" style="stop-color:#535353"/>
	<stop  offset="0.6054" style="stop-color:#3C3C3C"/>
	<stop  offset="0.8319" style="stop-color:#1D1D1D"/>
	<stop  offset="1" style="stop-color:#000000"/>
</linearGradient>
<path class="st15" d="M45.6,26.5c0.4,0,0.7,0.1,1,0.2c2.4,0.8,3.3,4.4,2.1,7.9c-1,3-3.4,5.1-5.5,5.1c-0.4,0-0.7-0.1-1-0.2
	c-1.1-0.4-1.9-1.4-2.3-2.8c-0.4-1.5-0.3-3.3,0.3-5.1C41.2,28.6,43.5,26.5,45.6,26.5z"/>
<path class="st11" d="M43.2,40.4v-1.5c-0.3,0-0.5,0-0.8-0.1c-1.9-0.7-2.7-3.8-1.6-6.9c1-3,3.2-4.6,4.8-4.6c0.3,0,0.5,0,0.8,0.1
	c1.2,0.4,1.7,1.6,1.9,2.3c0.4,1.4,0.3,3-0.3,4.6c-1,3-3.2,4.6-4.8,4.6L43.2,40.4z M43.2,40.4c2.5,0,5.1-2.2,6.3-5.6
	c1.4-3.9,0.2-7.9-2.5-8.9c-0.4-0.2-0.8-0.2-1.3-0.2c-2.5,0-5.1,2.2-6.3,5.6c-1.4,3.9-0.2,7.9,2.5,8.9C42.3,40.4,42.8,40.4,43.2,40.4
	z"/>
<path class="st5" d="M118.6,11.1l-4.8,8.6"/>
</svg>
