<svg xmlns="http://www.w3.org/2000/svg" viewBox="0 0 512.02 512.02"><title>chrome</title><path d="M493.25,160H256A96,96,0,0,0,172.18,303L53.57,99.43C140-12.38,300.64-33,412.46,53.4A256,256,0,0,1,493.25,160Z" style="fill:#f44336"/><path d="M512,256C511.9,397.36,397.36,511.9,256,512a228.34,228.34,0,0,1-32-2.13L339.22,304A96.24,96.24,0,0,0,304,172.82,95.12,95.12,0,0,0,256.23,160h237A252.59,252.59,0,0,1,512,256Z" style="fill:#ffc107"/><path d="M339.22,304,224,509.89h-.21C83.62,492.18-15.67,364.17,2.05,224A255.84,255.84,0,0,1,53.57,99.43L172.18,303l.64,1.07a96,96,0,0,0,166.4,0Z" style="fill:#4caf50"/><path d="M339.22,304a96,96,0,0,1-166.4,0l-.64-1.07A96,96,0,0,1,256,160h.21A95.12,95.12,0,0,1,304,172.82,96.23,96.23,0,0,1,339.22,304Z" style="fill:#f44336"/><path d="M339.22,304a96,96,0,0,1-166.4,0l-.64-1.07A96,96,0,0,1,256,160h.21A95.12,95.12,0,0,1,304,172.82,96.23,96.23,0,0,1,339.22,304Z" style="fill:#2196f3"/><path d="M255.66,362.69a105.81,105.81,0,0,1-53-14.21,106.75,106.75,0,1,1,145.79-39.12h0A107.27,107.27,0,0,1,255.66,362.69Zm.55-192a85.38,85.38,0,1,0,73.75,128h0a85.33,85.33,0,0,0-73.73-128Z" style="fill:#fafafa"/></svg>