<svg xmlns="http://www.w3.org/2000/svg" viewBox="0 0 473.12 512.01"><title>edge</title><path d="M0,227.39H.29A314.42,314.42,0,0,1,17,158.3a262,262,0,0,1,32.9-62.08,242.92,242.92,0,0,1,47.9-50.33Q125,24.58,161.76,12.29T240.83,0q66.1,0,118.43,30.18T443.36,117q29.76,53.47,29.76,126.43v53.76H151.3q.28,31.74,15.29,55.08a95.86,95.86,0,0,0,39,35q24,11.7,54.21,16.28a225.87,225.87,0,0,0,60.93.87,300.86,300.86,0,0,0,59.49-13.31Q409,381.54,429.89,367V474.82q-26.31,15.74-65.63,26.3T274.88,512q-50.07.29-90.4-15.17-54-20.88-89.09-71.2T59.78,319.2Q58.91,250,91.52,201.38t93-76.68a173.14,173.14,0,0,0-22.3,35.91q-8.6,18.72-13.16,45.63H330.66q2.29-22-2.31-40t-13.44-29a100.4,100.4,0,0,0-20.16-19,82.56,82.56,0,0,0-23-11.72c-7.81-2.46-15-4.44-21.44-5.85a99.59,99.59,0,0,0-16-2.43L228,97.82a278.11,278.11,0,0,0-74.24,12.74,258.41,258.41,0,0,0-63.91,29.89,328.44,328.44,0,0,0-50.33,40.19A324.82,324.82,0,0,0,0,227.39Z" style="fill:#2196f3"/></svg>