<?xml version="1.0" encoding="utf-8"?>
<!-- Generator: Adobe Illustrator 23.0.4, SVG Export Plug-In . SVG Version: 6.00 Build 0)  -->
<svg version="1.1" id="Layer_1" xmlns="http://www.w3.org/2000/svg" xmlns:xlink="http://www.w3.org/1999/xlink" x="0px" y="0px"
	 viewBox="0 0 503.4 503.4" style="enable-background:new 0 0 503.4 503.4;" xml:space="preserve">
<style type="text/css">
	.st0{fill:#00C8F6;}
</style>
<path class="st0" d="M503,293.4c0.9-8.1,0-17.1,0-26.9c0-41.3-0.9-81.7-21.6-117.7c21.6-58.4,19.8-101.5-7.2-128.4
	C460.8,7.7,438.3,2.4,406,4.2c-32.3,2.7-68.3,11.7-107.8,29.6c-6.3-0.9-11.7-0.9-17.1-0.9c-53.9,0-94.3,19.8-143.7,49.4
	C91.6,111,53.9,145.2,26.9,211.6c44.9-39.5,100.6-78.1,143.7-98.8c-4.5,4.5-12.6,13.5-30.5,31.4C91.6,191,79,213.4,62,242.2
	c-22.5,36.8-37.7,69.2-47.6,99.7C4.5,371.5,0,399.4,0,423.6c0,24.3,5.4,42.2,18.9,53c32.3,32.3,85.3,30.5,159-5.4
	c32.3,16.2,68.3,24.3,105.1,24.3c49.4,0,94.3-15.3,134.7-44c40.4-28.7,68.3-68.3,84.4-114.1H376.4c-9.9,16.2-21.6,30.5-37.7,40.4
	c-16.2,9.9-34.1,14.4-53,14.4c-19.8,0-36.8-4.5-53-14.4c-16.2-9.9-28.7-22.5-37.7-38.6c-7.9-15-15-29.1-15.2-45.8h206.6H503z
	 M44.9,454.2C21.6,430.8,30.5,403,62,341.9c18.9,51.2,35,74.6,81.7,103.3C89.8,469.4,65.6,474.8,44.9,454.2z M433.9,41.9
	c9.9,5.4,18.9,13.5,23.4,24.3c4.5,9,2.7,17.1-8.1,46.7c-32.3-38.6-39.5-42.2-82.6-63.8C406.9,32.9,417.7,32.9,433.9,41.9z
	 M180.5,229.6c1.8-25.2,15.3-46.7,34.1-64.7c18.9-18,40.4-25.2,66.5-25.2c25.2,0,47.6,7.2,66.5,25.2c18.9,17.1,27.8,39.5,29.6,64.7
	H180.5z"/>
</svg>
