<svg width="179" height="37" viewBox="0 0 179 37" fill="none" xmlns="http://www.w3.org/2000/svg">
<path d="M54.7594 13.9837C54.7594 13.6183 54.6521 13.2987 54.4527 13.0551C54.2381 12.8116 53.9467 12.6746 53.5633 12.6746H52.0299L51.4625 19.5094H53.226C53.9467 19.5094 54.3607 19.0527 54.4527 18.1241L54.7594 13.9837ZM56.7069 19.9204C57.2589 20.3466 57.535 20.9859 57.535 21.8232V21.9297C57.535 21.9602 57.535 22.021 57.5196 22.0819C57.5043 22.1428 57.5043 22.2037 57.5043 22.2798L57.0443 28.0186C57.0443 28.5362 57.3356 28.7797 57.903 28.7797L57.7497 30.5455H56.2775C54.4834 30.5455 53.5787 29.7388 53.5787 28.0947C53.5787 27.9577 53.594 27.8512 53.6093 27.7751L54.054 22.0363C54.054 21.3969 53.7627 21.0773 53.1953 21.0773H51.3245L50.5118 30.5455H47.0615L48.5643 12.6746H47.5522L47.7056 11.0914H53.962C55.2808 11.0914 56.3235 11.3959 57.0749 11.9895C57.8417 12.5832 58.2097 13.4204 58.2097 14.4708C58.2097 17.1956 57.7036 19.007 56.7069 19.9204Z" fill="black"/>
<path d="M107.25 18.7178L105.762 18.9766L105.041 27.288C105.041 27.3184 105.041 27.3641 105.041 27.4097C105.041 27.4554 105.041 27.4859 105.041 27.5315C105.041 28.2774 105.41 28.6884 106.13 28.7645L105.977 30.5455H104.765C103.815 30.5455 103.048 30.2868 102.496 29.7692C101.944 29.2516 101.668 28.521 101.668 27.5924C101.668 27.5163 101.668 27.4554 101.668 27.4097C101.668 27.3489 101.668 27.288 101.668 27.2271L102.373 18.733H101.024L101.177 17.1499H102.527L102.772 13.9989H106.176L105.885 17.1499H107.388L107.25 18.7178Z" fill="black"/>
<path d="M125.391 30.5455H123.78C122.937 30.5455 122.232 30.3324 121.71 29.9062C121.174 29.48 120.913 28.8863 120.913 28.11C120.913 28.0795 120.913 28.0339 120.928 27.973C120.944 27.9121 120.944 27.8664 120.944 27.8055L121.557 20.2096C121.557 19.8138 121.45 19.4637 121.22 19.1592C120.99 18.8548 120.683 18.7026 120.284 18.7026H118.889L117.877 30.5303H114.396L115.254 20.2096C115.254 19.8138 115.147 19.4637 114.917 19.1592C114.687 18.8548 114.38 18.7026 113.982 18.7026H112.586L111.574 30.5303H108.109L109.09 18.7026H108.185L108.339 17.1194H120.422C121.864 17.1194 122.983 17.4087 123.796 18.0023C124.609 18.596 125.023 19.4332 125.023 20.5445C125.023 20.6206 125.023 20.6815 125.007 20.7424C124.992 20.8032 124.992 20.8641 124.992 20.9402L124.425 27.6076C124.409 27.6837 124.394 27.7751 124.394 27.8968C124.394 28.0491 124.409 28.1861 124.425 28.3079C124.44 28.4144 124.486 28.5057 124.563 28.5666C124.639 28.6275 124.747 28.6732 124.9 28.7036C125.053 28.7341 125.253 28.7493 125.529 28.7493L125.391 30.5455Z" fill="black"/>
<path d="M131.478 18.7179C130.758 18.7179 130.343 19.1745 130.267 20.0879L129.699 27.1358C129.699 27.1966 129.699 27.2423 129.699 27.3032C129.699 27.3641 129.699 27.4098 129.699 27.4402C129.699 28.4601 130.19 28.9776 131.172 28.9776C131.708 28.9776 132.184 28.7798 132.598 28.3688C133.012 27.973 133.242 27.4859 133.303 26.9074L133.978 18.7179H131.478ZM137.643 30.5455H136.416C135.205 30.5455 134.315 30.1802 133.763 29.4648C132.996 30.1802 132.107 30.5455 131.095 30.5455H130.558C129.991 30.5455 129.439 30.4694 128.917 30.302C128.396 30.1345 127.951 29.9062 127.553 29.6018C127.169 29.2973 126.863 28.9472 126.648 28.5362C126.433 28.1252 126.326 27.6685 126.326 27.151C126.326 27.014 126.326 26.8922 126.326 26.8161L126.817 20.8946C126.863 20.3466 127.031 19.8443 127.307 19.3876C127.583 18.931 127.951 18.5352 128.396 18.2003C128.841 17.8654 129.347 17.6066 129.914 17.424C130.481 17.2413 131.064 17.15 131.693 17.15H137.689L136.799 27.7751C136.799 27.8055 136.799 27.8512 136.784 27.8816C136.769 27.9121 136.769 27.9578 136.769 27.9882C136.769 28.6123 137.106 28.9472 137.781 28.9776L137.643 30.5455Z" fill="black"/>
<path d="M145.663 21.9145C146.706 22.158 147.503 22.5995 148.055 23.2236C148.622 23.8477 148.898 24.6088 148.898 25.507V25.8266L148.638 27.8055C148.638 28.4449 148.944 28.7645 149.542 28.7797L149.42 30.5455H148.208C147.227 30.5455 146.46 30.3476 145.924 29.9519C145.387 29.5561 145.111 29.0081 145.111 28.2774L145.264 25.6135C145.264 25.0351 145.141 24.5479 144.896 24.1369C144.651 23.7412 144.283 23.5281 143.777 23.5281C143.393 23.5281 143.01 23.6651 142.611 23.9543L142.044 30.5303H138.594L140.096 12.8572H139.115L139.268 11.0914H143.731L142.857 21.2752L146.966 17.1347H150.417L145.663 21.9145Z" fill="black"/>
<path d="M169.6 20.8185H167.714L167.837 19.068C167.438 19.2202 167.07 19.4485 166.717 19.7225C166.364 19.9965 166.073 20.3314 165.812 20.6968C165.552 21.0621 165.337 21.4731 165.168 21.8993C165 22.3255 164.908 22.767 164.862 23.2084L164.248 30.5455H160.767L161.779 18.9005H160.798L160.951 17.1348H165.383L165.306 18.2764C166.211 17.5153 167.361 17.1348 168.757 17.1348H169.922L169.6 20.8185Z" fill="black"/>
<path d="M179 26.7094C179 27.2879 178.877 27.8054 178.647 28.2621C178.417 28.734 178.095 29.1298 177.697 29.4647C177.298 29.7995 176.807 30.0735 176.255 30.2562C175.703 30.4389 175.09 30.5302 174.43 30.5302H170.305L170.459 28.9471H173.234C174.308 28.9471 174.844 28.4143 174.844 27.364C174.844 26.7703 174.645 26.2528 174.231 25.8113L172.023 23.3758C171.302 22.5994 170.949 21.7318 170.949 20.7728C170.949 20.2248 171.072 19.7224 171.302 19.2658C171.532 18.8243 171.854 18.4286 172.268 18.1089C172.682 17.7892 173.173 17.5457 173.725 17.3782C174.277 17.2108 174.86 17.1194 175.488 17.1194H178.341L178.187 18.7026H176.132C175.274 18.7026 174.829 18.9766 174.829 19.5093C174.829 19.7986 174.936 20.0726 175.166 20.3618L177.773 23.6041C178.601 24.624 179 25.6591 179 26.7094Z" fill="black"/>
<path d="M96.0249 18.7331C95.3195 18.7331 94.6754 19.2963 94.5987 20.0117L94.3074 22.8126C94.2307 23.5129 94.7521 24.0913 95.4575 24.0913H96.2242C96.9296 24.0913 97.5736 23.5281 97.6503 22.8126L97.9417 20.0117C98.0183 19.3115 97.497 18.7331 96.7916 18.7331H96.0249ZM93.9854 27.699C93.9854 28.0948 94.1234 28.4449 94.4147 28.7189C94.7061 29.0081 95.2428 29.1451 95.6568 29.1451C96.1782 29.1451 96.9603 29.2517 97.359 28.8407C97.773 28.4297 98.0183 28.0948 98.0797 27.5163H99.7818C99.7511 28.0187 99.7051 28.384 99.4598 28.8254C99.2144 29.2669 98.9844 29.5713 98.6317 29.9062C98.279 30.2411 97.773 30.4542 97.2976 30.5912C96.7916 30.713 95.7948 30.713 95.3041 30.713H94.7674C94.1847 30.713 93.648 30.6369 93.1573 30.4695C92.6513 30.302 92.2219 30.0737 91.8539 29.7692C91.4858 29.4648 91.1945 29.1147 90.9951 28.6884C90.7804 28.2622 90.6731 27.7903 90.6731 27.2728L91.1791 21.0925C91.2098 20.7424 91.2865 20.3923 91.4245 20.0726C91.5012 19.8291 91.6085 19.5855 91.7465 19.3572C92.0225 18.9005 92.3752 18.5047 92.8046 18.1698C93.2493 17.8349 93.7553 17.5762 94.3227 17.3783C94.8901 17.1804 95.4881 17.0891 96.1322 17.0891H96.6842C97.2516 17.0891 97.8037 17.1652 98.3097 17.3326C98.8311 17.5001 99.2758 17.7284 99.6591 18.0328C100.043 18.3373 100.334 18.6874 100.564 19.1136C100.794 19.5398 100.901 19.9965 100.901 20.4836V20.8185L100.794 21.9602H100.779L100.748 22.3255C100.702 22.8583 100.533 23.3454 100.273 23.8021C99.9965 24.2588 99.6438 24.6545 99.2144 24.9894C98.7697 25.3243 98.2637 25.5831 97.6963 25.781C97.1289 25.9789 96.5156 26.0702 95.8868 26.0702H95.3348C94.9208 26.0702 94.5221 26.0245 94.1387 25.9332L93.9854 27.699Z" fill="black"/>
<path d="M155.4 18.7179C154.695 18.7179 154.051 19.2811 153.974 19.9965L153.683 22.7974C153.606 23.4977 154.127 24.0761 154.833 24.0761H155.6C156.305 24.0761 156.949 23.5129 157.026 22.7974L157.317 19.9965C157.394 19.2963 156.872 18.7179 156.167 18.7179H155.4ZM153.345 27.6838C153.345 28.0796 153.483 28.4297 153.775 28.7037C154.066 28.9929 154.603 29.1299 155.017 29.1299C155.538 29.1299 156.32 29.2365 156.719 28.8255C157.133 28.4145 157.378 28.0796 157.44 27.5011H159.142C159.111 28.0035 159.065 28.3688 158.82 28.8103C158.574 29.2517 158.344 29.5561 157.992 29.891C157.639 30.2259 157.133 30.439 156.658 30.576C156.152 30.6978 155.155 30.6978 154.664 30.6978H154.127C153.545 30.6978 153.008 30.6217 152.517 30.4543C152.011 30.2868 151.582 30.0585 151.214 29.754C150.846 29.4496 150.554 29.0995 150.355 28.6732C150.14 28.247 150.033 27.7751 150.033 27.2576L150.539 21.0773C150.57 20.7272 150.646 20.3771 150.784 20.0574C150.861 19.8139 150.969 19.5703 151.107 19.342C151.367 18.8853 151.735 18.4895 152.165 18.1546C152.609 17.8197 153.115 17.561 153.683 17.3631C154.25 17.1652 154.848 17.0739 155.492 17.0739H156.044C156.612 17.0739 157.164 17.15 157.67 17.3174C158.191 17.4849 158.636 17.7132 159.019 18.0176C159.403 18.3221 159.694 18.6722 159.924 19.0984C160.154 19.5246 160.261 19.9813 160.261 20.4684V20.8033L160.154 21.945H160.139L160.108 22.3103C160.062 22.8431 159.893 23.3302 159.633 23.7869C159.356 24.2436 159.004 24.6393 158.574 24.9742C158.13 25.3091 157.624 25.5679 157.056 25.7658C156.489 25.9637 155.876 26.055 155.247 26.055H154.695C154.281 26.055 153.882 26.0093 153.499 25.918L153.345 27.6838Z" fill="black"/>
<path d="M155.4 18.7179C154.695 18.7179 154.051 19.2811 153.974 19.9965L153.683 22.7974C153.606 23.4977 154.127 24.0761 154.833 24.0761H155.6C156.305 24.0761 156.949 23.5129 157.026 22.7974L157.317 19.9965C157.394 19.2963 156.872 18.7179 156.167 18.7179H155.4ZM153.345 27.6838C153.345 28.0796 153.483 28.4297 153.775 28.7037C154.066 28.9929 154.603 29.1299 155.017 29.1299C155.538 29.1299 156.32 29.2365 156.719 28.8255C157.133 28.4145 157.378 28.0796 157.44 27.5011H159.142C159.111 28.0035 159.065 28.3688 158.82 28.8103C158.574 29.2517 158.344 29.5561 157.992 29.891C157.639 30.2259 157.133 30.439 156.658 30.576C156.152 30.6978 155.155 30.6978 154.664 30.6978H154.127C153.545 30.6978 153.008 30.6217 152.517 30.4543C152.011 30.2868 151.582 30.0585 151.214 29.754C150.846 29.4496 150.554 29.0995 150.355 28.6732C150.14 28.247 150.033 27.7751 150.033 27.2576L150.539 21.0773C150.57 20.7272 150.646 20.3771 150.784 20.0574C150.861 19.8139 150.969 19.5703 151.107 19.342C151.367 18.8853 151.735 18.4895 152.165 18.1546C152.609 17.8197 153.115 17.561 153.683 17.3631C154.25 17.1652 154.848 17.0739 155.492 17.0739H156.044C156.612 17.0739 157.164 17.15 157.67 17.3174C158.191 17.4849 158.636 17.7132 159.019 18.0176C159.403 18.3221 159.694 18.6722 159.924 19.0984C160.154 19.5246 160.261 19.9813 160.261 20.4684V20.8033L160.154 21.945H160.139L160.108 22.3103C160.062 22.8431 159.893 23.3302 159.633 23.7869C159.356 24.2436 159.004 24.6393 158.574 24.9742C158.13 25.3091 157.624 25.5679 157.056 25.7658C156.489 25.9637 155.876 26.055 155.247 26.055H154.695C154.281 26.055 153.882 26.0093 153.499 25.918L153.345 27.6838Z" fill="black"/>
<path d="M68.9747 20.5445C68.9747 20.0574 68.8674 19.6008 68.6373 19.1745C68.4993 18.9158 68.3307 18.6722 68.116 18.4591L68.1313 18.4439C68.0086 18.3069 67.8706 18.1851 67.7326 18.0785C67.3492 17.7741 66.9045 17.5458 66.3832 17.3783C65.8618 17.2109 65.3251 17.1348 64.7577 17.1348H64.221C63.5923 17.1348 62.9789 17.2261 62.4115 17.424C61.8441 17.6219 61.3381 17.8807 60.9087 18.2155C60.464 18.5504 60.1113 18.9462 59.8506 19.4029C59.7893 19.5247 59.728 19.6312 59.6666 19.753C59.4979 20.1183 59.4059 20.4989 59.3599 20.8947L58.8386 26.8161C58.8386 26.9074 58.8386 27.014 58.8386 27.151C58.8386 27.6533 58.9459 28.1252 59.1759 28.5362C59.4059 28.9472 59.6973 29.3125 60.096 29.6018C60.4794 29.9062 60.9394 30.1345 61.4454 30.302C61.9668 30.4694 62.5035 30.5455 63.0862 30.5455H63.6076C64.221 30.5455 64.819 30.4542 65.3864 30.2563C65.9538 30.0584 66.4598 29.7996 66.8892 29.4495C67.3339 29.0994 67.6866 28.7036 67.9626 28.247C68.208 27.8208 68.3767 27.3793 68.438 26.9226V26.9074C68.438 26.877 68.4533 26.8465 68.4533 26.8161L68.714 23.7869L68.76 23.315L68.9747 20.8947V20.5445ZM65.0951 26.9074C65.0337 27.6076 64.8497 28.1252 64.543 28.4601C64.221 28.795 63.8836 28.9624 63.5003 28.9624C63.1476 28.9624 62.8409 28.795 62.5955 28.4753C62.3502 28.1556 62.2275 27.7294 62.2275 27.1966C62.2275 27.1358 62.2275 27.0901 62.2275 27.0444C62.2275 26.9988 62.2275 26.9531 62.2275 26.8922L62.4728 23.9086L62.7489 20.7272C62.8102 20.1488 62.9789 19.6617 63.2702 19.2659C63.3316 19.1898 63.3929 19.1137 63.4543 19.0528C63.6996 18.8244 64.0063 18.7027 64.3437 18.7027C64.7117 18.7027 65.0031 18.8549 65.2484 19.1441C65.4784 19.4333 65.6011 19.8748 65.6011 20.438V20.7424L65.5244 21.7319L65.1871 25.7962L65.0951 26.9074Z" fill="black"/>
<path d="M73.8513 19.2202C74.0813 18.8853 74.3573 18.7179 74.6793 18.7179H78.3596L78.5129 17.1348H74.8327C74.204 17.1348 73.6213 17.2261 73.0539 17.4088C72.4865 17.5914 71.9805 17.8502 71.5511 18.1851C71.1218 18.52 70.7691 18.9158 70.493 19.3724C70.217 19.8291 70.0637 20.3314 70.0023 20.8794L69.7263 24.213L69.4963 27.1509C69.4963 27.1661 69.4963 27.1814 69.4963 27.1814C69.5116 27.6685 69.619 28.1099 69.8183 28.5057C70.033 28.9319 70.3244 29.282 70.7077 29.5864C71.0757 29.8909 71.5204 30.1192 72.0418 30.2867C72.5478 30.4541 73.0999 30.5302 73.6826 30.5302H74.2193C74.7253 30.5302 75.2007 30.4237 75.6761 30.2258C76.1361 30.0279 76.5655 29.7539 76.9181 29.419C77.1942 29.1602 77.4395 28.8558 77.6542 28.5361C77.0408 28.4905 76.4121 28.4296 75.7834 28.3535C75.3694 28.7492 74.9093 28.9471 74.388 28.9471C73.9739 28.9471 73.6213 28.8101 73.3299 28.5209C73.1459 28.3535 73.0232 28.1556 72.9619 27.9425L73.0846 25.2634L73.4986 20.301C73.4986 19.9204 73.6366 19.5703 73.8513 19.2202Z" fill="black"/>
<path d="M89.2623 28.2012L89.4617 25.857V25.8265V25.5069C89.4617 24.6088 89.1857 23.8477 88.6183 23.2235C88.0509 22.5994 87.2535 22.158 86.2261 21.9144L90.9798 17.1347H87.5295L83.4198 21.2751L84.2939 11.0914H79.8315L79.6782 12.8572H80.6596L79.4942 26.5572L79.2181 29.7539L79.1568 30.5302H82.6071L82.7604 28.734L82.9138 26.8769L83.1745 23.9542C83.5732 23.6802 83.9565 23.528 84.3399 23.528C84.846 23.528 85.214 23.7259 85.4593 24.1369C85.7047 24.5327 85.8274 25.035 85.8274 25.6134L85.766 26.7399C85.766 26.7399 85.582 28.5513 85.766 28.9319C85.8887 29.3429 86.1187 29.6778 86.4868 29.9365C87.0235 30.3323 87.7902 30.5302 88.7716 30.5302H89.9831L90.1057 28.7644C89.661 28.7644 89.385 28.5665 89.2623 28.2012Z" fill="black"/>
<path d="M5.1064 30.3933C6.19515 30.3933 7.08456 31.1848 7.25324 32.2199C7.89729 31.8394 8.64868 31.6263 9.44607 31.6263C11.8383 31.6263 13.7857 33.5595 13.7857 35.9342C13.7857 36.0103 13.7857 36.0864 13.7704 36.1625C17.9107 31.5958 17.5427 25.9179 17.19 23.7412C17.0367 23.6955 16.8987 23.665 16.7606 23.6194C16.7453 23.6042 16.7453 23.6042 16.7453 23.6042C16.5766 23.3454 16.4233 23.0257 16.2853 22.6908C16.2853 22.706 16.2699 22.706 16.2699 22.7213L12.4516 28.4448C12.3136 28.6579 11.8996 28.5818 11.8996 28.3535V23.1018C11.8996 22.8278 11.9916 22.5538 12.1603 22.3255L14.9205 18.5199C14.7212 17.4544 14.6138 16.2975 14.6138 15.0645C14.6138 13.6336 14.7672 12.2636 15.0278 11.0915C15.0278 11.0915 15.0278 11.0915 15.0432 11.0762C15.8252 8.06224 17.558 6.35734 18.1408 5.85501C18.2021 5.80934 18.2788 5.79412 18.3708 5.80934V5.79412C18.4321 5.80934 18.4628 5.82456 18.5088 5.85501C19.0762 6.3269 20.8243 7.9709 21.7137 11.0762C21.729 11.0762 21.729 11.0762 21.729 11.0915C21.9744 12.2788 22.1277 13.6488 22.1277 15.0645C22.1277 16.267 22.0204 17.4087 21.8364 18.4438L24.5659 22.2037C24.7346 22.432 24.8266 22.706 24.8266 22.98V28.2317C24.8266 28.4601 24.4126 28.5362 24.2746 28.3231L20.4563 22.5843C20.4409 22.5538 20.4256 22.5234 20.4103 22.4929C20.2416 22.9192 20.0576 23.2997 19.8429 23.6194C19.6742 23.6803 19.4902 23.7259 19.3215 23.7716C18.9842 25.9788 18.6315 31.6263 22.7565 36.1777C22.7565 36.1016 22.7411 36.0255 22.7411 35.9494C22.7411 33.5747 24.6886 31.6415 27.0808 31.6415C27.8782 31.6415 28.6296 31.8546 29.2736 32.2352C29.427 31.2001 30.3317 30.4085 31.4205 30.4085C31.6812 30.4085 31.9112 30.4542 32.1412 30.5303C34.8861 27.3488 36.5575 23.2236 36.5575 18.7026C36.6035 8.6559 28.4149 0.527222 18.2941 0.527222C8.18864 0.527222 0 8.6559 0 18.6874C0 23.2084 1.65613 27.3336 4.40101 30.5151C4.63103 30.4389 4.86105 30.3933 5.1064 30.3933Z" fill="black"/>
<path d="M18.4629 13.4661C18.9795 13.4661 19.3983 13.0504 19.3983 12.5376C19.3983 12.0248 18.9795 11.6091 18.4629 11.6091C17.9463 11.6091 17.5275 12.0248 17.5275 12.5376C17.5275 13.0504 17.9463 13.4661 18.4629 13.4661Z" fill="black"/>
<path d="M18.4629 16.0234C18.9795 16.0234 19.3983 15.6077 19.3983 15.0949C19.3983 14.5821 18.9795 14.1664 18.4629 14.1664C17.9463 14.1664 17.5275 14.5821 17.5275 15.0949C17.5275 15.6077 17.9463 16.0234 18.4629 16.0234Z" fill="black"/>
<path d="M18.4629 18.5959C18.9795 18.5959 19.3983 18.1802 19.3983 17.6674C19.3983 17.1546 18.9795 16.7389 18.4629 16.7389C17.9463 16.7389 17.5275 17.1546 17.5275 17.6674C17.5275 18.1802 17.9463 18.5959 18.4629 18.5959Z" fill="black"/>
</svg>
