<svg xmlns="http://www.w3.org/2000/svg" viewBox="0 0 512 512"><title>safari</title><circle cx="256" cy="256" r="256" style="fill:#1da2f8"/><path d="M256,37.89a3.12,3.12,0,0,1-3.12-3.12V20.48a3.12,3.12,0,0,1,6.24,0V34.77A3.12,3.12,0,0,1,256,37.89Z" style="fill:#f2f2f2"/><path d="M256,494.64a3.12,3.12,0,0,1-3.12-3.12V477.23a3.12,3.12,0,0,1,6.24,0v14.29A3.12,3.12,0,0,1,256,494.64Z" style="fill:#f2f2f2"/><path d="M217.58,41.25a3.12,3.12,0,0,1-3.07-2.58L212,24.6a3.12,3.12,0,0,1,6.15-1.08l2.48,14.07a3.11,3.11,0,0,1-2.54,3.61A2.47,2.47,0,0,1,217.58,41.25Z" style="fill:#f2f2f2"/><path d="M296.89,491.06a3.12,3.12,0,0,1-3.07-2.58l-2.48-14.07a3.12,3.12,0,0,1,6.15-1.08L300,487.4a3.11,3.11,0,0,1-2.53,3.61A2.56,2.56,0,0,1,296.89,491.06Z" style="fill:#f2f2f2"/><path d="M180.33,51.23a3.13,3.13,0,0,1-2.93-2l-4.89-13.43a3.12,3.12,0,0,1,5.87-2.13L183.27,47a3.12,3.12,0,0,1-1.87,4A3.06,3.06,0,0,1,180.33,51.23Z" style="fill:#f2f2f2"/><path d="M336.55,480.44a3.12,3.12,0,0,1-2.93-2.06L328.73,465a3.12,3.12,0,0,1,5.87-2.14l4.89,13.43a3.13,3.13,0,0,1-1.87,4A3.06,3.06,0,0,1,336.55,480.44Z" style="fill:#f2f2f2"/><path d="M145.39,67.53A3.13,3.13,0,0,1,142.68,66L135.54,53.6a3.12,3.12,0,1,1,5.4-3.13l7.15,12.38a3.13,3.13,0,0,1-2.7,4.68Z" style="fill:#f2f2f2"/><path d="M373.76,463.09a3.12,3.12,0,0,1-2.71-1.57l-7.14-12.37a3.12,3.12,0,0,1,5.41-3.12l7.14,12.37a3.12,3.12,0,0,1-2.7,4.69Z" style="fill:#f2f2f2"/><path d="M113.8,89.65a3.13,3.13,0,0,1-2.4-1.12l-9.18-10.94a3.12,3.12,0,1,1,4.78-4l9.19,10.94a3.13,3.13,0,0,1-2.39,5.13Z" style="fill:#f2f2f2"/><path d="M407.39,439.54a3.09,3.09,0,0,1-2.39-1.12l-9.19-10.94a3.12,3.12,0,1,1,4.79-4l9.18,10.94a3.12,3.12,0,0,1-.39,4.4A3.09,3.09,0,0,1,407.39,439.54Z" style="fill:#f2f2f2"/><path d="M86.53,116.92a3.11,3.11,0,0,1-2-.73L73.58,107a3.12,3.12,0,1,1,4-4.78l10.94,9.18a3.12,3.12,0,0,1-2,5.52Z" style="fill:#f2f2f2"/><path d="M436.42,410.51a3.11,3.11,0,0,1-2-.73l-10.94-9.18a3.12,3.12,0,1,1,4-4.79L438.42,405a3.12,3.12,0,0,1-2,5.51Z" style="fill:#f2f2f2"/><path d="M64.4,148.51a3.14,3.14,0,0,1-1.55-.42l-12.38-7.15a3.12,3.12,0,1,1,3.13-5.4L66,142.68a3.13,3.13,0,0,1-1.57,5.83Z" style="fill:#f2f2f2"/><path d="M460,376.88a3,3,0,0,1-1.56-.42L446,369.32a3.12,3.12,0,0,1,3.12-5.41l12.37,7.15a3.12,3.12,0,0,1-1.56,5.82Z" style="fill:#f2f2f2"/><path d="M48.11,183.46a3.14,3.14,0,0,1-1.07-.19l-13.42-4.89a3.12,3.12,0,1,1,2.13-5.87l13.43,4.89a3.13,3.13,0,0,1-1.07,6.06Z" style="fill:#f2f2f2"/><path d="M477.32,339.67a3.29,3.29,0,0,1-1.07-.18l-13.43-4.89a3.12,3.12,0,0,1,2.14-5.87l13.42,4.89a3.12,3.12,0,0,1-1.06,6.05Z" style="fill:#f2f2f2"/><path d="M38.13,220.71a3.29,3.29,0,0,1-.54-.05l-14.07-2.48A3.12,3.12,0,0,1,24.6,212l14.07,2.48a3.12,3.12,0,0,1-.54,6.2Z" style="fill:#f2f2f2"/><path d="M487.94,300a3.29,3.29,0,0,1-.54,0l-14.07-2.48a3.12,3.12,0,0,1,1.08-6.15l14.07,2.48a3.12,3.12,0,0,1-.54,6.2Z" style="fill:#f2f2f2"/><path d="M34.77,259.12H20.48a3.12,3.12,0,1,1,0-6.24H34.77a3.12,3.12,0,0,1,0,6.24Z" style="fill:#f2f2f2"/><path d="M491.52,259.12H477.23a3.12,3.12,0,0,1,0-6.24h14.29a3.12,3.12,0,0,1,0,6.24Z" style="fill:#f2f2f2"/><path d="M24.06,300a3.12,3.12,0,0,1-.54-6.2l14.07-2.48a3.12,3.12,0,0,1,1.08,6.15L24.6,300A3.29,3.29,0,0,1,24.06,300Z" style="fill:#f2f2f2"/><path d="M473.87,220.71a3.12,3.12,0,0,1-.54-6.2L487.4,212a3.12,3.12,0,0,1,1.08,6.15l-14.07,2.48A3.29,3.29,0,0,1,473.87,220.71Z" style="fill:#f2f2f2"/><path d="M34.68,339.67a3.12,3.12,0,0,1-1.06-6.05L47,328.73a3.12,3.12,0,0,1,2.14,5.87l-13.43,4.89A3.29,3.29,0,0,1,34.68,339.67Z" style="fill:#f2f2f2"/><path d="M463.89,183.46a3.13,3.13,0,0,1-1.07-6.06l13.43-4.89a3.12,3.12,0,0,1,2.13,5.87L465,183.27A3.06,3.06,0,0,1,463.89,183.46Z" style="fill:#f2f2f2"/><path d="M52,376.88a3.13,3.13,0,0,1-1.57-5.83l12.38-7.14A3.12,3.12,0,0,1,66,369.32L53.6,376.46A3.08,3.08,0,0,1,52,376.88Z" style="fill:#f2f2f2"/><path d="M447.6,148.51a3.13,3.13,0,0,1-1.57-5.83l12.37-7.14a3.12,3.12,0,1,1,3.13,5.4l-12.38,7.15A3.14,3.14,0,0,1,447.6,148.51Z" style="fill:#f2f2f2"/><path d="M75.58,410.51a3.12,3.12,0,0,1-2-5.51l10.94-9.19a3.12,3.12,0,1,1,4,4.79l-10.94,9.18A3.13,3.13,0,0,1,75.58,410.51Z" style="fill:#f2f2f2"/><path d="M425.48,116.92a3.12,3.12,0,0,1-2-5.52l10.94-9.18a3.12,3.12,0,1,1,4,4.78l-10.94,9.19A3.11,3.11,0,0,1,425.48,116.92Z" style="fill:#f2f2f2"/><path d="M104.61,439.54a3.13,3.13,0,0,1-2.39-5.13l9.18-10.94a3.12,3.12,0,0,1,4.79,4L107,438.42A3.09,3.09,0,0,1,104.61,439.54Z" style="fill:#f2f2f2"/><path d="M398.2,89.65a3.13,3.13,0,0,1-2.39-5.13L405,73.58a3.12,3.12,0,1,1,4.78,4L400.6,88.53A3.11,3.11,0,0,1,398.2,89.65Z" style="fill:#f2f2f2"/><path d="M138.24,463.09a3.12,3.12,0,0,1-2.7-4.69L142.68,446a3.12,3.12,0,0,1,5.41,3.12L141,461.53A3.13,3.13,0,0,1,138.24,463.09Z" style="fill:#f2f2f2"/><path d="M366.61,67.53a3.18,3.18,0,0,1-1.56-.42,3.12,3.12,0,0,1-1.14-4.26l7.14-12.38a3.13,3.13,0,0,1,5.41,3.13L369.32,66A3.13,3.13,0,0,1,366.61,67.53Z" style="fill:#f2f2f2"/><path d="M175.45,480.44a3.06,3.06,0,0,1-1.07-.19,3.13,3.13,0,0,1-1.87-4l4.89-13.43a3.12,3.12,0,0,1,5.87,2.14l-4.89,13.42A3.12,3.12,0,0,1,175.45,480.44Z" style="fill:#f2f2f2"/><path d="M331.67,51.23A3.06,3.06,0,0,1,330.6,51a3.12,3.12,0,0,1-1.87-4l4.89-13.42a3.12,3.12,0,1,1,5.87,2.13L334.6,49.18A3.13,3.13,0,0,1,331.67,51.23Z" style="fill:#f2f2f2"/><path d="M215.11,491.06a2.56,2.56,0,0,1-.55-.05A3.11,3.11,0,0,1,212,487.4l2.48-14.07a3.12,3.12,0,0,1,6.15,1.08l-2.48,14.07A3.12,3.12,0,0,1,215.11,491.06Z" style="fill:#f2f2f2"/><path d="M294.42,41.25a2.47,2.47,0,0,1-.54,0,3.12,3.12,0,0,1-2.54-3.61l2.48-14.07A3.12,3.12,0,0,1,300,24.6l-2.48,14.07A3.12,3.12,0,0,1,294.42,41.25Z" style="fill:#f2f2f2"/><path d="M238.74,61.82A3.11,3.11,0,0,1,235.63,59l-3.27-37.32a3.12,3.12,0,0,1,6.22-.54l3.27,37.32A3.12,3.12,0,0,1,239,61.81Z" style="fill:#f2f2f2"/><path d="M276.52,493.74a3.11,3.11,0,0,1-3.1-2.85l-3.27-37.32a3.12,3.12,0,1,1,6.22-.54l3.27,37.32a3.12,3.12,0,0,1-2.84,3.38Z" style="fill:#f2f2f2"/><path d="M204.74,67.82a3.11,3.11,0,0,1-3-2.32L192,29.32a3.12,3.12,0,1,1,6-1.62l9.7,36.19a3.13,3.13,0,0,1-2.21,3.82A3.22,3.22,0,0,1,204.74,67.82Z" style="fill:#f2f2f2"/><path d="M317,486.61a3.12,3.12,0,0,1-3-2.31l-9.69-36.19a3.12,3.12,0,1,1,6-1.61L320,482.68a3.12,3.12,0,0,1-2.21,3.83A3.21,3.21,0,0,1,317,486.61Z" style="fill:#f2f2f2"/><path d="M172.3,79.62a3.11,3.11,0,0,1-2.83-1.8L153.64,43.87a3.12,3.12,0,1,1,5.65-2.64l15.84,34a3.12,3.12,0,0,1-2.83,4.44Z" style="fill:#f2f2f2"/><path d="M355.54,472.57a3.1,3.1,0,0,1-2.83-1.8l-15.84-33.95a3.12,3.12,0,0,1,5.66-2.64l15.83,33.95a3.11,3.11,0,0,1-1.51,4.15A3,3,0,0,1,355.54,472.57Z" style="fill:#f2f2f2"/><path d="M142.4,96.89a3.13,3.13,0,0,1-2.56-1.34L118.35,64.87a3.13,3.13,0,0,1,5.12-3.59L145,92a3.13,3.13,0,0,1-2.56,4.92Z" style="fill:#f2f2f2"/><path d="M391.09,452.05a3.15,3.15,0,0,1-2.56-1.33L367,420a3.12,3.12,0,0,1,5.12-3.58l21.48,30.69a3.12,3.12,0,0,1-2.55,4.91Z" style="fill:#f2f2f2"/><path d="M116,119.08a3.12,3.12,0,0,1-2.2-.92L87.26,91.67a3.12,3.12,0,0,1,4.41-4.41l26.49,26.49a3.13,3.13,0,0,1-2.21,5.33Z" style="fill:#f2f2f2"/><path d="M422.54,425.66a3.12,3.12,0,0,1-2.21-.92l-26.49-26.49a3.12,3.12,0,1,1,4.41-4.41l26.49,26.49a3.11,3.11,0,0,1,0,4.41A3.08,3.08,0,0,1,422.54,425.66Z" style="fill:#f2f2f2"/><path d="M93.76,145.52A3.13,3.13,0,0,1,92,145L61.28,123.47a3.12,3.12,0,1,1,3.59-5.11l30.68,21.48a3.12,3.12,0,0,1-1.79,5.68Z" style="fill:#f2f2f2"/><path d="M448.92,394.21a3,3,0,0,1-1.78-.57l-30.69-21.48A3.12,3.12,0,1,1,420,367l30.69,21.49a3.12,3.12,0,0,1-1.8,5.68Z" style="fill:#f2f2f2"/><path d="M76.5,175.42a3.12,3.12,0,0,1-1.32-.29l-34-15.84a3.12,3.12,0,1,1,2.64-5.65l33.95,15.83a3.12,3.12,0,0,1-1.32,5.95Z" style="fill:#f2f2f2"/><path d="M469.45,358.66a3.13,3.13,0,0,1-1.32-.3l-33.95-15.83a3.12,3.12,0,0,1,2.64-5.66l33.95,15.83a3.13,3.13,0,0,1-1.32,6Z" style="fill:#f2f2f2"/><path d="M64.7,207.86a3.21,3.21,0,0,1-.81-.1l-36.19-9.7a3.12,3.12,0,1,1,1.61-6l36.19,9.7a3.12,3.12,0,0,1-.8,6.13Z" style="fill:#f2f2f2"/><path d="M483.49,320.08a2.92,2.92,0,0,1-.81-.11l-36.18-9.7a3.12,3.12,0,0,1,1.61-6l36.19,9.7a3.12,3.12,0,0,1-.81,6.14Z" style="fill:#f2f2f2"/><path d="M58.7,241.86h-.28L21.1,238.58a3.12,3.12,0,0,1,.55-6.22L59,235.63a3.12,3.12,0,0,1-.27,6.23Z" style="fill:#f2f2f2"/><path d="M490.63,279.65h-.28L453,276.37a3.12,3.12,0,1,1,.54-6.22l37.32,3.27a3.12,3.12,0,0,1-.26,6.23Z" style="fill:#f2f2f2"/><path d="M21.38,279.65a3.12,3.12,0,0,1-.27-6.23l37.32-3.27a3.12,3.12,0,1,1,.54,6.22l-37.32,3.27Z" style="fill:#f2f2f2"/><path d="M453.3,241.86a3.12,3.12,0,0,1-.27-6.23l37.32-3.27a3.12,3.12,0,0,1,.55,6.22l-37.33,3.27Z" style="fill:#f2f2f2"/><path d="M28.5,320.08a3.12,3.12,0,0,1-.8-6.14l36.19-9.69a3.12,3.12,0,1,1,1.61,6L29.31,320A2.78,2.78,0,0,1,28.5,320.08Z" style="fill:#f2f2f2"/><path d="M447.3,207.86a3.12,3.12,0,0,1-.8-6.13l36.19-9.7a3.12,3.12,0,0,1,1.61,6l-36.19,9.7A3.21,3.21,0,0,1,447.3,207.86Z" style="fill:#f2f2f2"/><path d="M42.55,358.66a3.12,3.12,0,0,1-1.32-6l34-15.84a3.12,3.12,0,0,1,2.64,5.66L43.87,358.36A3.13,3.13,0,0,1,42.55,358.66Z" style="fill:#f2f2f2"/><path d="M435.5,175.42a3.12,3.12,0,0,1-1.32-5.95l33.95-15.83a3.12,3.12,0,0,1,2.64,5.66l-33.95,15.83A3.12,3.12,0,0,1,435.5,175.42Z" style="fill:#f2f2f2"/><path d="M63.08,394.21a3.09,3.09,0,0,1-2.56-1.33,3.12,3.12,0,0,1,.76-4.35L92,367a3.12,3.12,0,0,1,3.58,5.12L64.87,393.64A3.07,3.07,0,0,1,63.08,394.21Z" style="fill:#f2f2f2"/><path d="M418.24,145.52a3.12,3.12,0,0,1-1.79-5.68l30.68-21.48a3.12,3.12,0,1,1,3.59,5.11L420,145A3.13,3.13,0,0,1,418.24,145.52Z" style="fill:#f2f2f2"/><path d="M89.46,425.66a3.13,3.13,0,0,1-2.2-5.33l26.49-26.49a3.12,3.12,0,1,1,4.41,4.41L91.67,424.74A3.12,3.12,0,0,1,89.46,425.66Z" style="fill:#f2f2f2"/><path d="M396.05,119.08a3.13,3.13,0,0,1-2.21-5.33l26.49-26.49a3.12,3.12,0,0,1,4.42,4.41l-26.49,26.49A3.14,3.14,0,0,1,396.05,119.08Z" style="fill:#f2f2f2"/><path d="M120.91,452.05a3.13,3.13,0,0,1-2.56-4.92l21.49-30.68A3.12,3.12,0,1,1,145,420l-21.49,30.68A3.13,3.13,0,0,1,120.91,452.05Z" style="fill:#f2f2f2"/><path d="M369.6,96.89A3.13,3.13,0,0,1,367,92l21.49-30.69a3.12,3.12,0,0,1,5.12,3.58L372.16,95.55A3.13,3.13,0,0,1,369.6,96.89Z" style="fill:#f2f2f2"/><path d="M156.46,472.57a3,3,0,0,1-1.31-.29,3.12,3.12,0,0,1-1.51-4.15l15.83-33.95a3.12,3.12,0,1,1,5.66,2.64l-15.84,33.95A3.1,3.1,0,0,1,156.46,472.57Z" style="fill:#f2f2f2"/><path d="M339.7,79.62a3.12,3.12,0,0,1-2.83-4.44l15.83-34a3.12,3.12,0,0,1,5.66,2.64L342.53,77.82A3.11,3.11,0,0,1,339.7,79.62Z" style="fill:#f2f2f2"/><path d="M195,486.61a3.19,3.19,0,0,1-.8-.1,3.12,3.12,0,0,1-2.21-3.83l9.7-36.18a3.12,3.12,0,0,1,6,1.61l-9.7,36.19A3.12,3.12,0,0,1,195,486.61Z" style="fill:#f2f2f2"/><path d="M307.26,67.82a3.35,3.35,0,0,1-.81-.11,3.12,3.12,0,0,1-2.2-3.82l9.69-36.19a3.12,3.12,0,1,1,6,1.62L310.28,65.5A3.13,3.13,0,0,1,307.26,67.82Z" style="fill:#f2f2f2"/><path d="M235.48,493.74h-.28a3.12,3.12,0,0,1-2.84-3.38L235.63,453a3.12,3.12,0,1,1,6.22.54l-3.27,37.32A3.11,3.11,0,0,1,235.48,493.74Z" style="fill:#f2f2f2"/><path d="M273.26,61.82H273a3.12,3.12,0,0,1-2.84-3.38l3.27-37.33a3.12,3.12,0,0,1,6.22.55L276.37,59A3.11,3.11,0,0,1,273.26,61.82Z" style="fill:#f2f2f2"/><polygon points="286.93 286.93 424.88 87.12 225.07 225.07 87.12 424.88 286.93 286.93" style="fill:#f2f2f2"/><polygon points="286.93 286.93 424.88 87.12 87.12 424.88 286.93 286.93" style="fill:#ccc"/><polygon points="286.93 286.93 424.88 87.12 225.07 225.07 286.93 286.93" style="fill:#ff525d"/><polygon points="286.93 286.93 424.88 87.12 256 256 286.93 286.93" style="fill:#ef4152"/></svg>