<svg width="456" height="371" viewBox="0 0 456 371" fill="none" xmlns="http://www.w3.org/2000/svg">
<g clip-path="url(#clip0)">
<path d="M261.302 18.6791C258.525 18.7715 255.718 18.8947 252.942 18.987L252.633 18.987C252.387 18.987 252.109 19.0178 251.862 19.0178C251.338 19.0178 250.782 19.0486 250.258 19.0794L250.104 19.0794C248.993 19.1718 247.914 19.2642 246.803 19.3565L244.798 19.5413L241.651 19.8185C241.343 19.8493 241.065 19.8801 240.757 19.8801C240.171 19.9109 239.554 19.9725 238.968 20.0341L233.168 20.7423L230.392 21.0811L229.035 21.235L227.739 21.389C227.091 21.4814 226.444 21.5738 225.796 21.6969C225.487 21.7585 225.179 21.8201 224.839 21.8509L220.613 22.5284L216.171 23.2367C215.739 23.2982 215.308 23.3907 214.907 23.483C214.691 23.5138 214.505 23.5754 214.29 23.6062L211.637 24.1605L208.984 24.7148C208.49 24.8072 207.997 24.9304 207.503 25.0228C206.084 25.2999 204.603 25.6078 203.153 25.9774L198.372 27.1784L193.591 28.3794C192.017 28.7797 190.444 29.2416 188.933 29.6727L188.254 29.8883L180.511 32.1671L180.203 32.2595C179.74 32.3827 179.277 32.5366 178.845 32.6906C178.63 32.7522 178.414 32.8446 178.167 32.9062L175.668 33.7068L173.077 34.5691C172.553 34.7538 171.997 34.9078 171.473 35.0926C170.116 35.5237 168.697 35.9856 167.339 36.4783L162.866 38.0797L158.239 39.7118C156.481 40.3277 154.753 41.0359 153.304 41.5903L148.275 43.6227L144.697 45.0392C143.309 45.5935 141.952 46.2094 140.594 46.7945C139.977 47.0716 139.36 47.3488 138.743 47.5952C138.065 47.8724 137.386 48.1803 136.738 48.4574C135.35 49.0425 133.931 49.6584 132.543 50.3051C131.402 50.8286 130.229 51.383 129.057 51.9065C125.849 53.3846 122.548 54.8935 119.34 56.5256L114.991 58.7121L110.641 60.8985C109.315 61.5759 107.988 62.2842 106.693 62.9925C106.199 63.2696 105.736 63.516 105.243 63.7931C101.973 65.9796 98.7338 68.166 95.464 70.3832C93.0887 71.9845 90.7443 73.6166 88.369 75.2487C86.4564 76.5729 84.513 77.8971 82.6005 79.2212C81.9527 79.6831 81.274 80.1143 80.6571 80.5762C76.6468 83.5325 72.6675 86.5196 68.6573 89.5066C67.3925 90.6152 66.1586 91.693 64.8939 92.8016C61.5932 95.6963 58.2616 98.6218 54.9609 101.517C52.9558 103.272 51.0741 105.212 49.1307 107.06C46.3235 109.769 43.4855 112.479 40.6784 115.189C40.0614 115.774 39.4753 116.359 38.8892 116.975C36.3288 120.24 33.8302 123.689 31.3932 127.23C29.604 129.878 27.784 132.711 25.9949 135.668C25.0386 137.238 24.1748 138.809 23.4962 140.01L23.4036 140.164C22.4473 141.857 21.4602 143.613 20.5965 145.399C19.887 146.846 19.2083 148.324 18.4988 149.772L17.2957 152.297L16.3086 154.36L15.3215 156.423L15.1673 156.762C14.9822 157.132 14.7971 157.532 14.612 157.932L12.9462 162.089L11.1262 166.616L10.4784 168.248L10.0774 169.234C9.86146 169.757 9.67637 170.312 9.52214 170.866C9.42958 171.143 9.36787 171.42 9.27531 171.667L7.79463 176.101L6.4065 180.289C6.19056 180.936 6.00547 181.613 5.82038 182.26C5.75868 182.475 5.697 182.722 5.63529 182.937C5.14173 184.693 4.67903 186.448 4.18547 188.388C3.35258 191.683 2.64305 195.163 2.0261 199.043C1.53251 202.092 1.19322 205.356 0.94645 209.606C0.730507 213.055 0.66877 216.719 0.792182 220.815C0.884711 224.079 1.22407 227.374 1.53257 230.577L1.68677 232.147L2.0261 235.689C2.08777 236.274 2.18036 236.89 2.30375 237.475C2.36545 237.752 2.39628 238.029 2.45798 238.306L2.82816 240.616L3.2909 243.356C3.32175 243.572 3.35257 243.818 3.38343 244.034C3.47599 244.588 3.56849 245.142 3.66105 245.697L4.61731 250.131L5.57361 254.627C5.94379 256.413 6.43735 258.199 6.93091 259.955C7.116 260.601 7.30109 261.279 7.45533 261.926C7.57871 262.449 7.73291 262.973 7.85633 263.465C8.2265 264.974 8.62757 266.514 9.15198 267.992C10.1391 270.887 11.1262 273.781 12.1442 276.676C12.2984 277.107 12.4835 277.538 12.6686 277.97L12.8228 278.308L13.4398 279.756L14.9205 283.266L15.4449 284.498L16.3086 286.561C16.6479 287.362 17.049 288.163 17.4192 288.963C17.5425 289.21 17.666 289.487 17.7893 289.733C18.6839 291.581 19.671 293.49 20.689 295.399C24.3599 302.297 28.2159 307.963 32.4729 312.737C36.6373 317.387 41.8814 321.821 48.4828 326.317C54.3131 330.259 60.5135 333.492 66.9606 335.894C69.8603 336.972 72.9451 337.927 76.4309 338.82C79.6082 339.62 83.0323 340.236 87.2276 340.729C90.7134 341.16 94.2918 341.314 97.5925 341.406C97.9318 341.406 98.2711 341.437 98.6104 341.437C98.9806 341.437 99.3816 341.437 99.7518 341.437C100.122 341.437 100.492 341.437 100.862 341.437L105.86 341.437L106.106 341.437L106.353 341.437L106.754 341.437C107.094 341.437 107.495 341.437 107.926 341.406L112.43 341.191L117.057 340.975C119.001 340.883 120.975 340.667 122.857 340.452L122.949 340.452C126.404 340.082 130.075 339.497 134.116 338.666C135.689 338.358 137.571 337.957 139.391 337.495L141.766 336.88L144.265 336.233C144.79 336.11 145.283 335.987 145.807 335.833C147.257 335.463 148.738 335.093 150.188 334.662L154.692 333.307L159.288 331.922C160.923 331.429 162.558 330.875 164.162 330.351C164.625 330.197 165.118 330.043 165.581 329.889C166.29 329.643 167.031 329.427 167.74 329.181C169.252 328.688 170.794 328.195 172.337 327.672C182.794 324.038 192.233 320.743 201.734 317.325C205.652 315.908 209.57 314.492 213.457 313.106C218.639 311.228 223.821 309.349 229.004 307.502C231.287 306.67 233.539 305.869 235.821 305.038C237.857 304.299 239.893 303.56 241.96 302.821L250.258 299.834C251.77 299.279 253.343 298.756 254.854 298.263C255.44 298.078 256.027 297.863 256.613 297.678C257.569 297.37 258.525 297.031 259.451 296.723L260.006 296.539L262.412 295.8C264.078 295.276 265.744 294.783 267.409 294.26C269.384 293.675 271.389 293.12 273.332 292.628L277.281 291.55L277.959 291.365C279.934 290.842 281.939 290.441 283.82 290.041C290.514 288.686 297.702 287.978 305.167 287.885C305.475 287.885 305.784 287.885 306.092 287.885C308.375 287.885 310.658 287.978 312.91 288.07C313.619 288.101 314.329 288.132 315.069 288.163C315.316 288.163 315.563 288.163 315.809 288.193C316.334 288.193 316.858 288.224 317.383 288.255L321.424 288.624C321.948 288.686 322.473 288.717 322.997 288.748C324.663 288.871 326.39 289.025 328.056 289.302L332.961 290.072C333.3 290.133 333.639 290.164 333.979 290.226C334.657 290.318 335.367 290.411 336.046 290.565C337.804 290.934 339.593 291.304 341.351 291.673L344.251 292.289C345.886 292.628 347.552 293.028 349.156 293.398C349.896 293.582 350.606 293.736 351.346 293.921C355.418 294.876 359.829 295.83 365.258 296.939C367.418 297.37 369.701 297.801 372.23 298.232L374.081 298.54L375.932 298.848C376.734 298.971 377.536 299.095 378.338 299.156C378.739 299.187 379.14 299.249 379.51 299.31C380.682 299.464 381.885 299.618 383.058 299.772C383.304 299.803 383.551 299.803 383.798 299.834C383.921 299.834 384.045 299.834 384.168 299.864L385.649 299.957L387.037 300.049L387.839 300.111C388.857 300.172 389.937 300.265 390.985 300.296C391.788 300.326 392.59 300.326 393.392 300.326C396.26 300.326 399.16 300.172 401.998 299.864C405.114 299.526 408.384 298.817 411.715 297.77C413.165 297.309 414.646 296.785 416.096 296.2C417.545 295.615 419.057 294.876 420.97 293.798C423.561 292.32 426.121 290.534 428.774 288.255C431.643 285.822 434.172 282.958 436.054 280.71C440.095 275.906 443.735 270.086 447.19 262.88C449.936 257.122 452.002 250.593 453.606 242.925C454.223 239.938 454.717 236.736 455.149 232.825C455.55 229.222 455.797 225.465 455.889 221.677C455.92 219.983 455.92 218.259 455.889 216.688L455.889 216.042C455.889 215.118 455.858 214.194 455.797 213.27C455.704 211.977 455.612 210.683 455.519 209.39L455.334 206.865L455.149 204.34C455.118 204.001 455.118 203.662 455.087 203.323C455.056 202.584 454.995 201.815 454.902 201.106C454.501 198.181 454.069 195.255 453.668 192.299C453.637 192.053 453.606 191.806 453.576 191.56C453.514 191.067 453.452 190.513 453.36 190.02L453.298 189.651C453.113 188.665 452.897 187.68 452.712 186.694L452.157 183.984L451.694 181.736L451.57 181.059C451.385 180.104 451.2 179.15 450.954 178.195L450.028 174.777L448.825 170.312L448.424 168.895L448.023 167.417C447.869 166.863 447.684 166.278 447.468 165.754C447.375 165.477 447.283 165.2 447.19 164.923L445.771 160.611L444.414 156.546C444.26 156.115 444.105 155.684 443.92 155.253C443.828 155.068 443.766 154.853 443.673 154.668C443.026 152.974 442.347 151.281 441.699 149.618L440.373 146.199C440.188 145.738 439.972 145.276 439.756 144.814C439.663 144.629 439.571 144.444 439.509 144.259L436.979 138.655L435.776 135.976C435.53 135.421 435.221 134.836 434.913 134.313L434.728 133.974L433.463 131.664L432.198 129.355C431.982 128.955 431.766 128.585 431.581 128.185C430.841 126.83 430.1 125.413 429.268 124.089L426.707 120.024L424.27 116.113C423.468 114.82 422.574 113.588 421.71 112.356C421.34 111.864 421 111.371 420.661 110.847C420.322 110.355 419.982 109.862 419.612 109.338C418.748 108.107 417.885 106.813 416.959 105.612L413.196 100.747L411.098 98.0675C410.142 96.8358 409.093 95.6348 408.106 94.4646C407.828 94.1566 407.551 93.8179 407.273 93.51L405.052 90.8924L404.034 89.6914C403.911 89.5374 403.756 89.3835 403.633 89.2295C403.325 88.86 402.985 88.4596 402.646 88.1209L398.451 83.7481L396.322 81.5001C396.106 81.2845 395.921 81.0689 395.705 80.8534C395.273 80.3915 394.841 79.9295 394.379 79.4984L392.929 78.1434L392.219 77.466L389.135 74.6021L385.988 71.6766C385.587 71.307 385.186 70.9683 384.785 70.6296C384.6 70.4756 384.384 70.2908 384.199 70.1369L382.07 68.3507L379.942 66.5647L377.567 64.5631C377.104 64.1627 376.61 63.7932 376.117 63.4237C375.87 63.2389 375.654 63.0849 375.407 62.9001L373.526 61.4528L368.929 57.9114C368.467 57.5418 367.942 57.2031 367.479 56.8644C367.233 56.6796 366.986 56.5256 366.739 56.3409L362.266 53.1074C360.786 52.0296 359.181 50.921 357.392 49.72L355.202 48.2419L353.197 46.8869C353.012 46.7638 352.827 46.6406 352.642 46.5174C352.21 46.2095 351.747 45.9015 351.284 45.6243L346.41 42.6372L343.542 40.882C341.938 39.8966 340.272 39.0035 338.668 38.1413L338.544 38.0797C335.46 36.4168 332.221 34.877 328.642 33.3373C326.884 32.5982 324.971 31.7976 323.028 31.0893L322.781 30.9969L318.308 29.3648C317.876 29.2109 317.475 29.0568 317.043 28.9029C315.501 28.3486 313.928 27.7635 312.324 27.2708L307.789 25.8542L303.409 24.4993C302.884 24.3453 302.391 24.2221 301.835 24.0989L298.689 23.3291L296.715 22.8363L294.833 22.3744L292.951 21.9125C292.427 21.7893 291.903 21.697 291.378 21.6046C291.162 21.5738 290.946 21.543 290.73 21.4814L288.787 21.1427C286.751 20.7731 284.684 20.4036 282.648 20.0649C282.031 19.9417 281.383 19.8801 280.766 19.8185C280.52 19.7877 280.273 19.7569 280.026 19.7261C279.162 19.6337 278.299 19.5414 277.435 19.4489C275.923 19.295 274.319 19.1718 272.222 19.0178C270.371 18.8946 268.551 18.8331 266.885 18.8023L266.361 18.8023C265.373 18.7715 264.355 18.7407 263.368 18.7407C262.443 18.6483 261.857 18.6483 261.302 18.6791Z" fill="url(#paint0_linear)"/>
<circle cx="366.952" cy="110.16" r="0.6875" transform="rotate(-180 366.952 110.16)" fill="white"/>
<circle cx="366.952" cy="110.16" r="0.6875" transform="rotate(-180 366.952 110.16)" fill="white"/>
<circle cx="336.952" cy="230.16" r="0.6875" transform="rotate(-180 336.952 230.16)" fill="white"/>
<circle cx="146.952" cy="230.16" r="0.6875" transform="rotate(-180 146.952 230.16)" fill="white"/>
<circle cx="56.9517" cy="180.16" r="0.6875" transform="rotate(-180 56.9517 180.16)" fill="white"/>
<path d="M144.111 267.9C115.591 267.9 92.4717 290.979 92.4717 319.45C92.4717 347.92 115.591 371 144.111 371C172.63 371 195.75 347.92 195.75 319.45C195.75 290.979 172.63 267.9 144.111 267.9Z" fill="url(#paint1_linear)"/>
<path d="M50.7963 255.181C42.0224 255.181 34.9097 262.282 34.9097 271.041C34.9097 279.799 42.0224 286.9 50.7963 286.9C59.5703 286.9 66.6829 279.799 66.6829 271.041C66.6829 262.282 59.5703 255.181 50.7963 255.181Z" fill="url(#paint2_linear)"/>
<path d="M281.139 270L282.788 244.32L279.819 244.32L281.139 270Z" fill="url(#paint3_linear)"/>
<path d="M281.467 218.008L279.819 243.687L282.788 243.687L281.467 218.008Z" fill="url(#paint4_linear)"/>
<path d="M255.682 243.84L281.362 245.488L281.362 242.52L255.682 243.84Z" fill="url(#paint5_linear)"/>
<path d="M307.674 244.168L281.995 242.52L281.995 245.488L307.674 244.168Z" fill="url(#paint6_linear)"/>
<circle cx="281.264" cy="244.375" r="2.375" transform="rotate(-180 281.264 244.375)" fill="white"/>
<path d="M388.251 210.383L389.246 194.886L387.455 194.886L388.251 210.383Z" fill="url(#paint7_linear)"/>
<path d="M388.449 179.008L387.455 194.504L389.246 194.504L388.449 179.008Z" fill="url(#paint8_linear)"/>
<path d="M372.889 194.596L388.386 195.591L388.386 193.8L372.889 194.596Z" fill="url(#paint9_linear)"/>
<path d="M404.264 194.794L388.768 193.8L388.768 195.591L404.264 194.794Z" fill="url(#paint10_linear)"/>
<circle cx="388.327" cy="194.919" r="1.43321" transform="rotate(-180 388.327 194.919)" fill="white"/>
<path d="M60.5737 101.198L61.626 84.8046L59.7308 84.8046L60.5737 101.198Z" fill="url(#paint11_linear)"/>
<path d="M60.7831 68.0078L59.7308 84.4007L61.6259 84.4007L60.7831 68.0078Z" fill="url(#paint12_linear)"/>
<path d="M44.323 84.4979L60.7158 85.5502L60.7159 83.6551L44.323 84.4979Z" fill="url(#paint13_linear)"/>
<path d="M77.5127 84.7074L61.1198 83.6551L61.1198 85.5502L77.5127 84.7074Z" fill="url(#paint14_linear)"/>
<circle cx="60.6536" cy="84.8395" r="1.5161" transform="rotate(-180 60.6536 84.8395)" fill="white"/>
<path d="M70.78 182.746L72.4285 157.066L69.4597 157.066L70.78 182.746Z" fill="url(#paint15_linear)"/>
<path d="M71.1082 130.754L69.4597 156.434L72.4285 156.434L71.1082 130.754Z" fill="url(#paint16_linear)"/>
<path d="M-24.677 186.586L1.0027 188.234L1.0027 185.266L-24.677 186.586Z" fill="url(#paint17_linear)"/>
<path d="M97.3152 156.914L71.6355 155.266L71.6355 158.234L97.3152 156.914Z" fill="url(#paint18_linear)"/>
<path d="M44.5127 156.586L70.1924 158.234L70.1924 155.266L44.5127 156.586Z" fill="url(#paint19_linear)"/>
<circle cx="70.905" cy="157.121" r="2.375" transform="rotate(-180 70.905 157.121)" fill="white"/>
<circle cx="178.764" cy="222.375" r="1.375" transform="rotate(-180 178.764 222.375)" fill="white"/>
<circle cx="358.764" cy="149.473" r="1.375" transform="rotate(-180 358.764 149.473)" fill="white"/>
<circle cx="356.264" cy="79.4727" r="1.375" transform="rotate(-180 356.264 79.4727)" fill="white"/>
<circle cx="376.264" cy="59.4727" r="1.375" transform="rotate(-180 376.264 59.4727)" fill="white"/>
<circle cx="416.264" cy="253.75" r="1.375" transform="rotate(-180 416.264 253.75)" fill="white"/>
<circle cx="228.764" cy="252.375" r="1.375" transform="rotate(-180 228.764 252.375)" fill="white"/>
<circle cx="141.727" cy="252.375" r="1.375" transform="rotate(-180 141.727 252.375)" fill="white"/>
<circle cx="1.72722" cy="122.375" r="1.375" transform="rotate(-180 1.72722 122.375)" fill="white"/>
</g>
<defs>
<linearGradient id="paint0_linear" x1="455.889" y1="180.047" x2="0.715486" y2="180.047" gradientUnits="userSpaceOnUse">
<stop stop-color="#FC6405"/>
<stop offset="0.0411326" stop-color="#FC5E09"/>
<stop offset="0.0946362" stop-color="#FC4E15"/>
<stop offset="0.1548" stop-color="#FD3328"/>
<stop offset="0.1573" stop-color="#FD3229"/>
<stop offset="0.2778" stop-color="#D8241D"/>
<stop offset="0.4118" stop-color="#B71713"/>
<stop offset="0.5498" stop-color="#9D0D0B"/>
<stop offset="0.6912" stop-color="#8B0605"/>
<stop offset="0.8383" stop-color="#800101"/>
<stop offset="1" stop-color="#7C0000"/>
</linearGradient>
<linearGradient id="paint1_linear" x1="195.75" y1="319.437" x2="92.8008" y2="319.437" gradientUnits="userSpaceOnUse">
<stop offset="0.045141" stop-color="#FD461A"/>
<stop offset="0.1012" stop-color="#EA4D22"/>
<stop offset="0.3571" stop-color="#986944"/>
<stop offset="0.5838" stop-color="#57805E"/>
<stop offset="0.7729" stop-color="#289072"/>
<stop offset="0.9174" stop-color="#0B9A7E"/>
<stop offset="1" stop-color="#009E82"/>
</linearGradient>
<linearGradient id="paint2_linear" x1="72.4031" y1="271.039" x2="30.7123" y2="271.039" gradientUnits="userSpaceOnUse">
<stop offset="0.045141" stop-color="#FD461A"/>
<stop offset="0.1598" stop-color="#F65A35"/>
<stop offset="0.4539" stop-color="#E48B75"/>
<stop offset="0.702" stop-color="#D7AEA4"/>
<stop offset="0.8915" stop-color="#CFC4C1"/>
<stop offset="1" stop-color="#CCCCCC"/>
</linearGradient>
<linearGradient id="paint3_linear" x1="281.303" y1="262.938" x2="281.303" y2="245.188" gradientUnits="userSpaceOnUse">
<stop stop-color="white" stop-opacity="0"/>
<stop offset="1" stop-color="white"/>
</linearGradient>
<linearGradient id="paint4_linear" x1="281.303" y1="225.07" x2="281.303" y2="242.82" gradientUnits="userSpaceOnUse">
<stop stop-color="white" stop-opacity="0"/>
<stop offset="1" stop-color="white"/>
</linearGradient>
<linearGradient id="paint5_linear" x1="262.745" y1="244.004" x2="280.495" y2="244.004" gradientUnits="userSpaceOnUse">
<stop stop-color="white" stop-opacity="0"/>
<stop offset="1" stop-color="white"/>
</linearGradient>
<linearGradient id="paint6_linear" x1="300.612" y1="244.004" x2="282.862" y2="244.004" gradientUnits="userSpaceOnUse">
<stop stop-color="white" stop-opacity="0"/>
<stop offset="1" stop-color="white"/>
</linearGradient>
<linearGradient id="paint7_linear" x1="388.35" y1="206.121" x2="388.35" y2="195.41" gradientUnits="userSpaceOnUse">
<stop stop-color="white" stop-opacity="0"/>
<stop offset="1" stop-color="white"/>
</linearGradient>
<linearGradient id="paint8_linear" x1="388.35" y1="183.27" x2="388.35" y2="193.981" gradientUnits="userSpaceOnUse">
<stop stop-color="white" stop-opacity="0"/>
<stop offset="1" stop-color="white"/>
</linearGradient>
<linearGradient id="paint9_linear" x1="377.151" y1="194.695" x2="387.862" y2="194.695" gradientUnits="userSpaceOnUse">
<stop stop-color="white" stop-opacity="0"/>
<stop offset="1" stop-color="white"/>
</linearGradient>
<linearGradient id="paint10_linear" x1="400.002" y1="194.695" x2="389.291" y2="194.695" gradientUnits="userSpaceOnUse">
<stop stop-color="white" stop-opacity="0"/>
<stop offset="1" stop-color="white"/>
</linearGradient>
<linearGradient id="paint11_linear" x1="60.6784" y1="96.6891" x2="60.6784" y2="85.3582" gradientUnits="userSpaceOnUse">
<stop stop-color="white" stop-opacity="0"/>
<stop offset="1" stop-color="white"/>
</linearGradient>
<linearGradient id="paint12_linear" x1="60.6784" y1="72.5162" x2="60.6784" y2="83.8471" gradientUnits="userSpaceOnUse">
<stop stop-color="white" stop-opacity="0"/>
<stop offset="1" stop-color="white"/>
</linearGradient>
<linearGradient id="paint13_linear" x1="48.8314" y1="84.6027" x2="60.1623" y2="84.6027" gradientUnits="userSpaceOnUse">
<stop stop-color="white" stop-opacity="0"/>
<stop offset="1" stop-color="white"/>
</linearGradient>
<linearGradient id="paint14_linear" x1="73.0043" y1="84.6027" x2="61.6734" y2="84.6027" gradientUnits="userSpaceOnUse">
<stop stop-color="white" stop-opacity="0"/>
<stop offset="1" stop-color="white"/>
</linearGradient>
<linearGradient id="paint15_linear" x1="70.9441" y1="175.684" x2="70.9441" y2="157.934" gradientUnits="userSpaceOnUse">
<stop stop-color="white" stop-opacity="0"/>
<stop offset="1" stop-color="white"/>
</linearGradient>
<linearGradient id="paint16_linear" x1="70.9441" y1="137.816" x2="70.9441" y2="155.566" gradientUnits="userSpaceOnUse">
<stop stop-color="white" stop-opacity="0"/>
<stop offset="1" stop-color="white"/>
</linearGradient>
<linearGradient id="paint17_linear" x1="-17.6145" y1="186.75" x2="0.135511" y2="186.75" gradientUnits="userSpaceOnUse">
<stop stop-color="white" stop-opacity="0"/>
<stop offset="1" stop-color="white"/>
</linearGradient>
<linearGradient id="paint18_linear" x1="90.2527" y1="156.75" x2="72.5027" y2="156.75" gradientUnits="userSpaceOnUse">
<stop stop-color="white" stop-opacity="0"/>
<stop offset="1" stop-color="white"/>
</linearGradient>
<linearGradient id="paint19_linear" x1="51.5752" y1="156.75" x2="69.3252" y2="156.75" gradientUnits="userSpaceOnUse">
<stop stop-color="white" stop-opacity="0"/>
<stop offset="1" stop-color="white"/>
</linearGradient>
<clipPath id="clip0">
<rect width="455.159" height="370.12" fill="white" transform="translate(455.889 371) rotate(-180)"/>
</clipPath>
</defs>
</svg>
