<svg width="159" height="32" viewBox="0 0 159 32" fill="none" xmlns="http://www.w3.org/2000/svg">
<g clip-path="url(#clip0)">
<path d="M15.5939 21.1386C17.8022 21.1386 19.5924 19.3454 19.5924 17.1332C19.5924 14.9211 17.8022 13.1278 15.5939 13.1278C13.3856 13.1278 11.5955 14.9211 11.5955 17.1332C11.5955 19.3454 13.3856 21.1386 15.5939 21.1386Z" fill="url(#paint0_linear)"/>
<path d="M42.9608 14.363L43.284 13.8713C44.3974 12.3843 46.0494 11.7007 48.0128 11.7007C50.3233 11.7007 52.2028 12.5162 53.1366 14.411C53.5077 15.1785 53.6753 15.994 53.6753 16.7255V24.6284H51.676V22.23C51.281 23.0694 50.443 23.8129 49.6529 24.2087C48.6712 24.7483 47.6057 25.0002 46.5283 24.9522C45.2474 24.9042 43.9664 24.2566 43.296 23.3452C42.7573 22.5537 42.4819 21.8702 42.4819 20.9468C42.4819 19.5917 43.2002 18.4044 44.3854 17.7089C45.7382 16.9414 47.0191 16.8454 48.9226 16.5696L51.3408 16.2218C51.2451 15.5503 50.8979 14.9147 50.3352 14.5189C49.6888 14.0272 48.8268 13.8234 47.9649 13.8474C46.8994 13.8474 45.9417 14.1951 45.3072 14.9866C45.2114 15.1065 45.0917 15.2385 45.0319 15.3824L42.9608 14.363ZM48.5994 18.5603C46.7318 18.8601 44.7565 19.1959 44.7326 20.8029C44.7086 21.8582 45.6185 22.8056 46.8515 22.8775C48.4318 22.9495 50.3951 22.086 51.0176 20.4791C51.4366 19.6156 51.4366 18.8961 51.4366 18.1046C50.7183 18.2125 49.9043 18.3325 48.5994 18.5603Z" fill="black"/>
<path d="M64.3898 11.9886V14.1112C63.8032 13.8834 63.1088 13.7874 62.3666 13.8114C61.3849 13.8594 60.5709 14.1832 60.0441 14.7468C59.0864 15.6582 58.9787 16.8694 58.9787 18.3805V24.6284H56.7161V12.0246H58.7033V13.8714C58.9787 13.3797 59.3498 12.96 59.8646 12.5882C60.6307 11.9766 61.5884 11.7248 62.5462 11.7008C63.1567 11.6528 63.7792 11.7487 64.3898 11.9886Z" fill="black"/>
<path d="M83.9513 17.1092L83.9273 24.6164H81.6647L81.6887 17.1092C81.6887 15.97 81.5689 15.3104 80.8028 14.6388C80.3598 14.1951 79.7134 13.9433 79.0789 13.9433C78.2887 13.9433 77.5226 14.2671 77.0317 14.8787C76.493 15.5263 76.3972 16.1858 76.3972 16.9054V17.1212V24.6284H74.1466V17.1212C74.1466 15.982 74.0269 15.3224 73.2846 14.6508C72.8177 14.2071 72.1952 13.9553 71.5368 13.9553C70.7467 13.9553 70.0044 14.2791 69.5136 14.8907C68.9509 15.5383 68.8671 16.1978 68.8671 16.9174V24.6404H66.6045V12.0245H68.6038V13.6315C69.4418 12.5642 70.7706 11.9286 72.1713 11.9286C73.153 11.9286 74.1705 12.3003 74.9607 12.9599C75.3557 13.2837 75.6311 13.6315 75.8705 14.0272L75.9423 13.8833C76.7564 12.6481 78.2049 11.9286 79.6894 11.9286C80.6711 11.9286 81.7126 12.3003 82.5027 12.9599C83.7597 14.0152 83.9513 15.3824 83.9513 17.1092Z" fill="black"/>
<path d="M94.4024 15.874C94.1749 15.2025 93.6601 14.5429 93.0017 14.2191C92.5109 13.9673 91.9123 13.8234 91.3018 13.8234C90.6553 13.8234 90.0447 13.9433 89.5779 14.1711C89.0631 14.447 88.7877 14.8427 88.7877 15.2385C88.7877 15.5383 88.8835 15.8021 89.0631 16.006C89.3624 16.2818 89.8053 16.4976 90.5954 16.7255C91.206 16.9174 91.9961 17.1212 92.882 17.3611C93.8397 17.6369 94.558 17.8528 95.3242 18.5004C96.3058 19.2679 96.7727 20.2512 96.677 21.4145C96.5812 22.5298 95.9587 23.5131 95.0009 24.1247C94.0193 24.7603 92.7623 24.9642 91.5053 24.9642C89.8293 24.9642 88.3328 24.4965 87.2434 23.3093C86.573 22.5657 86.0343 21.3065 85.9146 20.5151L88.0814 19.9754C88.1533 20.587 88.4286 21.3785 88.8715 21.8462C89.5419 22.5897 90.5236 22.8056 91.4813 22.8056C92.2714 22.8056 93.2531 22.6617 93.7679 22.2659C94.139 21.9901 94.3305 21.6543 94.3784 21.2346C94.4024 20.8149 94.2587 20.4671 93.9355 20.1673C93.5644 19.8195 93.0496 19.6276 92.2595 19.3998C91.625 19.2079 90.9306 19.052 90.1166 18.8122C89.111 18.5363 88.3448 18.2725 87.6504 17.7209C86.8603 17.0853 86.4892 16.1379 86.4892 15.2984C86.4892 13.8953 87.423 12.7081 88.6321 12.1684C89.5659 11.7487 90.4757 11.6528 91.3377 11.6768C92.2236 11.6768 93.1573 11.8686 93.9953 12.3123C95.2284 12.924 96.234 14.0872 96.6291 15.3464L94.4024 15.874Z" fill="black"/>
<path d="M102.735 19.6276C102.735 20.659 102.711 21.3305 103.01 21.8222C103.285 22.3379 103.848 22.6617 104.435 22.7336C105.081 22.7816 105.859 22.7576 106.506 22.6377V24.6164C105.62 24.8443 104.291 24.8922 103.429 24.7124C102.316 24.4605 101.454 23.9209 100.987 22.9855C100.52 22.0501 100.472 21.0307 100.472 19.7715V13.8713H97.7185V12.0245H100.472V8.53479H102.735V12.0245H106.506V13.8713H102.735V19.6276Z" fill="black"/>
<path d="M116.993 11.9886V14.1112C116.406 13.8834 115.712 13.7874 114.969 13.8114C113.988 13.8594 113.174 14.1832 112.635 14.7468C111.677 15.6582 111.57 16.8694 111.57 18.3805V24.6284H109.307V12.0246H111.306V13.8714C111.582 13.3797 111.953 12.96 112.467 12.5882C113.234 11.9766 114.191 11.7248 115.149 11.7008C115.76 11.6528 116.382 11.7487 116.993 11.9886Z" fill="black"/>
<path d="M119.614 22.9015C118.549 21.5704 118.142 19.9874 118.142 18.3324C118.142 16.6295 118.585 15.0226 119.614 13.7394C120.68 12.4083 122.428 11.6887 124.247 11.6887C126.067 11.6887 127.791 12.3603 128.904 13.7394C129.97 15.0945 130.377 16.6775 130.377 18.3324C130.377 20.0353 129.958 21.5704 128.904 22.9015C127.767 24.3046 126.115 24.9762 124.247 24.9762C122.44 24.9762 120.74 24.2806 119.614 22.9015ZM127.982 18.3324C127.982 17.1692 127.767 15.982 127.12 15.1185C126.474 14.2551 125.397 13.8353 124.259 13.8353C123.122 13.8353 122.045 14.2551 121.422 15.1185C120.776 15.982 120.56 17.1692 120.56 18.3324C120.56 19.4957 120.776 20.6589 121.422 21.5224C122.057 22.3858 123.122 22.8295 124.259 22.8295C125.397 22.8295 126.474 22.3858 127.12 21.5224C127.767 20.6589 127.982 19.4957 127.982 18.3324Z" fill="black"/>
<path d="M144.12 18.3924V24.6164H141.833V18.3924C141.833 16.7855 141.642 15.4064 140.6 14.5669C140.014 14.0992 139.248 13.8714 138.338 13.8954C137.62 13.9433 136.937 14.1712 136.434 14.5909C135.872 15.0586 135.525 15.7542 135.369 16.5456C135.249 17.0373 135.225 17.601 135.225 18.2006V24.6164H132.939V12.0246H134.962V13.2598L135.189 13.0319C136.147 12.1685 137.404 11.7727 138.565 11.7248C139.846 11.6528 141.199 12.0485 142.169 12.864C143.857 14.2191 144.144 16.1379 144.12 18.3924Z" fill="black"/>
<path d="M158.043 12.0245V24.8322C158.043 27.0268 157.456 28.4419 155.996 29.4493C154.739 30.3127 153.434 30.5406 152.177 30.5406C150.968 30.5406 149.663 30.1448 148.801 29.3533C148.19 29.0056 147.592 28.4659 147.221 27.8183L149.292 26.787C149.435 27.0388 149.615 27.2787 149.854 27.4586C150.441 28.0941 151.363 28.394 152.201 28.394C153.159 28.394 154.128 28.1421 154.787 27.5785C155.601 26.9309 155.816 26.1994 155.792 24.8083V23.5731C154.811 24.5085 153.47 24.9762 151.973 24.9762C150.273 24.9762 148.669 24.2566 147.64 22.9495C146.574 21.6183 146.215 19.9874 146.215 18.3324C146.215 16.6535 146.634 14.9746 147.64 13.6914C148.669 12.3843 150.273 11.6887 151.997 11.6887C153.578 11.6887 155.074 12.3003 156.068 13.3437V12.0245H158.043ZM155.086 21.7143C155.78 20.8748 156.068 19.5916 156.068 18.3324C156.068 17.0493 155.792 15.7901 155.086 14.9506C154.439 14.1351 153.434 13.7394 152.344 13.7394C151.159 13.7394 150.106 14.1591 149.459 15.0945C148.849 15.91 148.621 17.0972 148.621 18.3324C148.621 19.5437 148.837 20.7309 149.435 21.5464C150.082 22.4818 151.183 22.9255 152.273 22.9255C153.386 22.9255 154.404 22.5057 155.086 21.7143Z" fill="black"/>
<path d="M30.4267 19.5797L21.6396 4.00172C20.4664 1.91507 18.2636 0.631897 15.8693 0.631897C13.4989 0.631897 11.3082 1.90308 10.123 3.96575L0.928861 20.0114C0.342257 21.0187 0.0429688 22.158 0.0429688 23.3213V25.0002C0.0429688 28.6698 3.0119 31.6319 6.66321 31.6319H8.37514V31.3921C8.37514 30.8524 8.80611 30.4207 9.34483 30.4207C9.88355 30.4207 10.3145 30.8524 10.3145 31.3921V31.6319H20.3347V31.3921C20.3347 30.8524 20.7657 30.4207 21.3044 30.4207C21.8431 30.4207 22.2741 30.8524 22.2741 31.3921V31.6319H24.6684C28.3316 31.6319 31.2886 28.6578 31.2886 25.0002V22.8536C31.2886 21.7023 30.9893 20.575 30.4267 19.5797ZM15.6658 22.9375C13.5109 22.9375 11.6314 21.7503 10.6378 19.9874H8.71034C8.42303 19.9874 8.19557 19.7596 8.19557 19.4717C8.19557 19.1839 8.42303 18.9561 8.71034 18.9561H10.1828C10.0033 18.3924 9.89552 17.7808 9.89552 17.1572C9.89552 16.9774 9.90749 16.7975 9.91947 16.6176H8.71034C8.42303 16.6176 8.19557 16.3897 8.19557 16.1019C8.19557 15.8141 8.42303 15.5862 8.71034 15.5862H10.111C10.7934 13.1518 13.0201 11.377 15.6658 11.377C18.8502 11.377 21.4361 13.9673 21.4361 17.1572C21.4361 20.3472 18.8502 22.9375 15.6658 22.9375Z" fill="url(#paint1_linear)"/>
<path d="M15.5939 21.1386C17.8022 21.1386 19.5924 19.3454 19.5924 17.1332C19.5924 14.9211 17.8022 13.1278 15.5939 13.1278C13.3856 13.1278 11.5955 14.9211 11.5955 17.1332C11.5955 19.3454 13.3856 21.1386 15.5939 21.1386Z" fill="url(#paint2_linear)" fill-opacity="0.8"/>
</g>
<defs>
<linearGradient id="paint0_linear" x1="11.598" y1="17.1338" x2="19.6014" y2="17.1338" gradientUnits="userSpaceOnUse">
<stop stop-color="#FF3F62"/>
<stop offset="1" stop-color="#EC5D1E"/>
</linearGradient>
<linearGradient id="paint1_linear" x1="0.0429688" y1="16.1333" x2="31.2883" y2="16.1333" gradientUnits="userSpaceOnUse">
<stop stop-color="#FF3F62"/>
<stop offset="1" stop-color="#EC5D1E"/>
</linearGradient>
<linearGradient id="paint2_linear" x1="19.5924" y1="17.1332" x2="11.3675" y2="17.1332" gradientUnits="userSpaceOnUse">
<stop stop-color="white"/>
<stop offset="1" stop-color="white" stop-opacity="0"/>
</linearGradient>
<clipPath id="clip0">
<rect width="158" height="31" fill="white" transform="translate(0.0429688 0.631897)"/>
</clipPath>
</defs>
</svg>
